<?xml version="1.0" encoding="UTF-8" standalone="no"?>
<svg
   xmlns:dc="http://purl.org/dc/elements/1.1/"
   xmlns:cc="http://creativecommons.org/ns#"
   xmlns:rdf="http://www.w3.org/1999/02/22-rdf-syntax-ns#"
   xmlns:svg="http://www.w3.org/2000/svg"
   xmlns="http://www.w3.org/2000/svg"
   xmlns:sodipodi="http://sodipodi.sourceforge.net/DTD/sodipodi-0.dtd"
   xmlns:inkscape="http://www.inkscape.org/namespaces/inkscape"
   id="Layer_1"
   data-name="Layer 1"
   viewBox="0 0 797.48999 299.25"
   version="1.1"
   sodipodi:docname="dicast_logo.svg"
   width="797.48999"
   height="299.25"
   inkscape:version="0.92.5 (2060ec1f9f, 2020-04-08)">
  <metadata
     id="metadata931">
    <rdf:RDF>
      <cc:Work
         rdf:about="">
        <dc:format>image/svg+xml</dc:format>
        <dc:type
           rdf:resource="http://purl.org/dc/dcmitype/StillImage" />
        <dc:title></dc:title>
      </cc:Work>
    </rdf:RDF>
  </metadata>
  <sodipodi:namedview
     pagecolor="#ffffff"
     bordercolor="#666666"
     borderopacity="1"
     objecttolerance="10"
     gridtolerance="10"
     guidetolerance="10"
     inkscape:pageopacity="0"
     inkscape:pageshadow="2"
     inkscape:window-width="2560"
     inkscape:window-height="1377"
     id="namedview929"
     showgrid="false"
     inkscape:zoom="0.99583333"
     inkscape:cx="439.32"
     inkscape:cy="149.78"
     inkscape:window-x="687"
     inkscape:window-y="-8"
     inkscape:window-maximized="1"
     inkscape:current-layer="Layer_1"
     fit-margin-top="15"
     fit-margin-left="15"
     fit-margin-right="15"
     fit-margin-bottom="15" />
  <defs
     id="defs876">
    <style
       id="style874">.cls-1{fill:#09a8a4;}.cls-2{fill:#13736a;}.cls-3{fill:#231025;}.cls-4{fill:#8b272e;}.cls-5{fill:#f32c39;}</style>
  </defs>
  <polygon
     class="cls-1"
     points="324.48,630.77 256.34,675.77 256.34,734.78 304.55,696.76 "
     id="polygon878"
     style="fill:#09a8a4"
     transform="translate(-160.68,-450.53)" />
  <polygon
     class="cls-2"
     points="188.2,630.68 207.28,696.84 256.34,734.78 256.34,675.77 "
     id="polygon880"
     style="fill:#13736a"
     transform="translate(-160.68,-450.53)" />
  <polygon
     class="cls-3"
     points="188.2,630.68 256.34,597.09 324.48,630.77 256.34,675.77 "
     id="polygon882"
     style="fill:#231025"
     transform="translate(-160.68,-450.53)" />
  <polygon
     class="cls-4"
     points="282.46,636.43 256.33,651.51 256.33,621.34 "
     id="polygon884"
     style="fill:#8b272e"
     transform="translate(-160.68,-450.53)" />
  <polygon
     class="cls-5"
     points="230.2,636.43 256.33,651.51 256.33,621.34 "
     id="polygon886"
     style="fill:#f32c39"
     transform="translate(-160.68,-450.53)" />
  <polygon
     class="cls-1"
     points="337,566.83 256.34,609.32 256.34,637.17 330.19,594.6 "
     id="polygon888"
     style="fill:#09a8a4"
     transform="translate(-160.68,-450.53)" />
  <polygon
     class="cls-2"
     points="175.68,566.83 256.34,609.32 256.34,637.17 181.78,593.08 "
     id="polygon890"
     style="fill:#13736a"
     transform="translate(-160.68,-450.53)" />
  <polygon
     class="cls-5"
     points="237.22,580.97 256.34,573.24 256.34,549.98 214.33,566.53 "
     id="polygon892"
     style="fill:#f32c39"
     transform="translate(-160.68,-450.53)" />
  <polygon
     class="cls-4"
     points="274.65,581.68 302.21,567.34 256.34,549.98 256.34,573.27 "
     id="polygon894"
     style="fill:#8b272e"
     transform="translate(-160.68,-450.53)" />
  <path
     class="cls-3"
     d="M 95.66,84.77 15,116.3 95.67,158.79 176.32,116.3 Z m -40.28,31.7 40.33,-15.77 40.33,15.77 -40.33,21.24 z"
     id="path896"
     inkscape:connector-curvature="0"
     style="fill:#231025" />
  <polygon
     class="cls-3"
     points="232.71,469.31 256.34,465.53 276.19,470.17 256.34,474.74 "
     id="polygon898"
     style="fill:#231025"
     transform="translate(-160.68,-450.53)" />
  <polygon
     class="cls-5"
     points="276.19,470.17 256.34,474.77 256.34,486.06 275.5,482.11 "
     id="polygon900"
     style="fill:#f32c39"
     transform="translate(-160.68,-450.53)" />
  <polygon
     class="cls-3"
     points="256.34,486.06 275.5,482.11 303.08,486.06 281.26,492.25 "
     id="polygon902"
     style="fill:#231025"
     transform="translate(-160.68,-450.53)" />
  <polygon
     class="cls-4"
     points="256.33,497.72 256.43,517.09 278.68,523.79 281.26,492.25 256.34,486.06 256.34,474.77 232.71,469.31 234.69,491.65 "
     id="polygon904"
     style="fill:#8b272e"
     transform="translate(-160.68,-450.53)" />
  <polygon
     class="cls-3"
     points="213.03,497.75 234.69,491.65 256.34,497.75 233.74,504.54 "
     id="polygon906"
     style="fill:#231025"
     transform="translate(-160.68,-450.53)" />
  <polygon
     class="cls-5"
     points="256.34,497.75 233.74,504.2 234.86,524.04 256.43,517.09 "
     id="polygon908"
     style="fill:#f32c39"
     transform="translate(-160.68,-450.53)" />
  <polygon
     class="cls-3"
     points="234.86,524.04 256.43,517.09 278.68,523.79 256.34,531.92 "
     id="polygon910"
     style="fill:#231025"
     transform="translate(-160.68,-450.53)" />
  <polyline
     class="cls-5"
     points="256.34 531.72 278.68 523.79 281.26 492.25 303.08 486.06 296.13 531.69 256.34 549.74"
     id="polyline912"
     style="fill:#f32c39"
     transform="translate(-160.68,-450.53)" />
  <polyline
     class="cls-4"
     points="256.34 549.74 256.34 531.72 234.86 524.04 233.74 504.54 213.03 497.75 216.57 531.71"
     id="polyline914"
     style="fill:#8b272e"
     transform="translate(-160.68,-450.53)" />
  <path
     class="cls-3"
     d="m 244.32,94.08 h 18.36 v 156.19 h -18.36 z m 12.62,138.89 h 34.38 q 12.57,0 19.12,-6.39 6.55,-6.39 6.55,-18.64 V 136.4 q 0,-12.24 -6.55,-18.64 -6.55,-6.4 -19.12,-6.39 H 256.94 V 94.08 h 33.73 q 14.4,0 24.44,4.88 a 33.25,33.25 0 0 1 15.21,14.56 q 5.16,9.66 5.16,23.63 v 70 q 0,13.86 -5.16,23.53 a 33.57,33.57 0 0 1 -15.25,14.61 q -10.11,4.93 -24.5,4.94 h -33.63 z"
     id="path916"
     inkscape:connector-curvature="0"
     style="fill:#231025" />
  <path
     class="cls-3"
     d="m 380.44,250.27 h -16.7 v -142 h 16.7 z"
     id="path918"
     inkscape:connector-curvature="0"
     style="fill:#231025" />
  <path
     class="cls-3"
     d="m 426.82,246.36 a 35.88,35.88 0 0 1 -14.3,-15.43 q -5,-10.05 -5,-23.83 v -55.56 q 0,-13.77 5,-23.83 a 36.18,36.18 0 0 1 14.3,-15.48 q 9.29,-5.41 21.88,-5.42 12,0 20.85,4.88 a 35.56,35.56 0 0 1 14,14.21 q 5.18,9.33 6.06,22.51 h -16.69 a 36,36 0 0 0 -4.1,-13.82 22.18,22.18 0 0 0 -20.12,-11.76 23.78,23.78 0 0 0 -13,3.46 22.86,22.86 0 0 0 -8.5,10 36,36 0 0 0 -3,15.29 v 55.56 a 36,36 0 0 0 3,15.29 22.56,22.56 0 0 0 8.5,9.91 24,24 0 0 0 13,3.42 23.06,23.06 0 0 0 11.77,-3 22.78,22.78 0 0 0 8.35,-8.69 36.13,36.13 0 0 0 4.1,-13.92 h 16.7 q -0.88,13.19 -6.11,22.51 a 35.8,35.8 0 0 1 -14.06,14.21 q -8.83,4.88 -20.75,4.88 -12.6,-0.02 -21.88,-5.39 z"
     id="path920"
     inkscape:connector-curvature="0"
     style="fill:#231025" />
  <path
     class="cls-3"
     d="m 539.03,108.27 h 17 l 42.58,142 H 580.44 L 547.53,130.05 514.62,250.27 h -18.17 z m -20.71,93.66 h 60 v 15.54 h -60 z"
     id="path922"
     inkscape:connector-curvature="0"
     style="fill:#231025" />
  <path
     class="cls-3"
     d="m 625.95,248.47 a 36,36 0 0 1 -14.63,-9.87 38,38 0 0 1 -8.3,-16.46 l 15.91,-6.35 q 2.83,10.17 9.87,15.19 7.04,5.02 17.28,5 12.9,0 19.73,-5.52 6.83,-5.52 6.83,-16 v -5.17 q 0,-7 -3.41,-11.43 a 23.14,23.14 0 0 0 -8.94,-6.88 120.46,120.46 0 0 0 -14.21,-5.13 l -0.39,-0.19 -0.39,-0.2 -1.85,-0.59 a 128.25,128.25 0 0 1 -19.34,-6.93 31.9,31.9 0 0 1 -12.5,-10.69 q -5.09,-7.19 -5.08,-19.39 v -3.9 q 0,-11.92 4.93,-20.22 a 31.56,31.56 0 0 1 14.36,-12.64 q 9.42,-4.35 23,-4.35 a 47.76,47.76 0 0 1 18,3.12 31.27,31.27 0 0 1 12.79,9.43 44.55,44.55 0 0 1 7.81,15.77 l -15.53,6.25 q -2.92,-9.37 -8.64,-14.11 -5.72,-4.74 -14.4,-4.74 -12.6,0 -19.24,5.42 -6.64,5.42 -6.64,15.68 v 4 q 0,7 3.76,11.33 a 26.09,26.09 0 0 0 9.37,6.74 137.62,137.62 0 0 0 15.22,5.33 3.7,3.7 0 0 1 0.87,0.29 6,6 0 0 0 0.69,0.3 3.87,3.87 0 0 1 0.93,0.24 3.65,3.65 0 0 0 0.92,0.24 111,111 0 0 1 17.83,7 31.51,31.51 0 0 1 11.86,10.89 q 4.78,7.21 4.79,18.94 v 5.6 q 0,12.1 -5,20.41 a 31.66,31.66 0 0 1 -14.71,12.59 q -9.67,4.31 -23.44,4.3 a 57.39,57.39 0 0 1 -20.11,-3.3 z"
     id="path924"
     inkscape:connector-curvature="0"
     style="fill:#231025" />
  <path
     class="cls-3"
     d="m 697.92,108.27 h 84.57 V 124 h -84.57 z m 33.88,10.2 h 16.7 v 131.8 h -16.7 z"
     id="path926"
     inkscape:connector-curvature="0"
     style="fill:#231025" />
</svg>
