<?xml version="1.0" encoding="UTF-8" standalone="no"?>
<!-- Created with Inkscape (http://www.inkscape.org/) -->

<svg
   xmlns:dc="http://purl.org/dc/elements/1.1/"
   xmlns:cc="http://creativecommons.org/ns#"
   xmlns:rdf="http://www.w3.org/1999/02/22-rdf-syntax-ns#"
   xmlns:svg="http://www.w3.org/2000/svg"
   xmlns="http://www.w3.org/2000/svg"
   xmlns:sodipodi="http://sodipodi.sourceforge.net/DTD/sodipodi-0.dtd"
   xmlns:inkscape="http://www.inkscape.org/namespaces/inkscape"
   width="54.033031mm"
   height="10.5161mm"
   viewBox="0 0 54.033031 10.5161"
   version="1.1"
   id="svg8"
   inkscape:version="0.92.5 (2060ec1f9f, 2020-04-08)"
   sodipodi:docname="dicast.svg">
  <defs
     id="defs2" />
  <sodipodi:namedview
     id="base"
     pagecolor="#ffffff"
     bordercolor="#666666"
     borderopacity="1.0"
     inkscape:pageopacity="0.0"
     inkscape:pageshadow="2"
     inkscape:zoom="2.1291386"
     inkscape:cx="-20.031021"
     inkscape:cy="-11.341128"
     inkscape:document-units="mm"
     inkscape:current-layer="layer1"
     showgrid="false"
     inkscape:window-width="2560"
     inkscape:window-height="1377"
     inkscape:window-x="687"
     inkscape:window-y="-8"
     inkscape:window-maximized="1" />
  <metadata
     id="metadata5">
    <rdf:RDF>
      <cc:Work
         rdf:about="">
        <dc:format>image/svg+xml</dc:format>
        <dc:type
           rdf:resource="http://purl.org/dc/dcmitype/StillImage" />
        <dc:title />
      </cc:Work>
    </rdf:RDF>
  </metadata>
  <g
     inkscape:label="Ebene 1"
     inkscape:groupmode="layer"
     id="layer1"
     transform="translate(-50.19263,-16.762148)">
    <g
       aria-label="DICAST"
       style="font-style:normal;font-weight:normal;font-size:10.58333302px;line-height:1.25;font-family:sans-serif;letter-spacing:0px;word-spacing:0px;fill:#ffffff;fill-opacity:1;stroke:none;stroke-width:0.5;stroke-miterlimit:4;stroke-dasharray:none"
       id="text817">
      <path
         d="m 50.451104,17.346127 q 0.08785,0 0.227377,-0.149862 0.129191,0 0.155029,0 0.09302,0.0052 0.113688,0.0052 l 0.279053,-0.01034 q 0.03101,0 0.253214,0.09819 0.01034,0.0052 0.02584,0.0052 0.0155,0 0.103353,-0.04651 h 0.05684 l 0.966349,-0.03101 q 0.04134,-0.0052 0.124023,0.05168 0.04134,0.03101 0.139527,0.06201 l 0.08785,-0.08785 q 0.28422,0 0.583943,0.04134 l 0.0155,-0.0155 q 0.08785,0.118856 0.165365,0.118856 0.07235,0 0.139526,-0.124023 0.144694,0.01033 0.253215,0.01033 l 0.72347,0.09302 0.227376,0.0052 q 0.170532,0.04134 0.299723,0.05168 0.02067,0.103353 0.06201,0.113689 0.02067,0.0155 0.206706,0.03101 0.05684,-0.113688 0.118855,-0.113688 0.01034,0 0.103353,0.03101 l 0.1757,0.0052 q 0.05168,0 0.1757,0.07751 0.165365,0.103353 0.211873,0.103353 l 0.108521,-0.03101 0.475423,0.201539 q 0.465088,0.09819 0.521932,0.139526 0.06718,0.05168 0.07751,0.05168 l 0.103353,0.0155 q 0.118855,0.08785 0.175699,0.124024 l 0.217041,0.170532 0.232544,0.144694 q 0.196371,0.149862 0.315227,0.206706 -0.03101,0.113688 -0.03101,0.160197 0,0.134358 0.08785,0.134358 0.07235,0 0.160197,-0.03617 0.09819,0.118856 0.273885,0.28422 0.118855,0.118856 0.10852,0.149862 l 0.03617,0.155029 0.129191,0.356567 0.01034,0.237712 0.08785,0.320394 0.0155,0.392741 0.03617,0.165364 -0.02584,0.392741 q -0.01033,0.299724 -0.04651,0.45992 -0.03101,0.134359 -0.118855,0.372071 h -0.09302 q -0.0052,0.02067 -0.0052,0.03617 0,0.01034 0.05684,0.113688 0.0052,0.0155 0.0052,0.04134 0,0.07235 -0.03617,0.165364 -0.04134,0.103353 -0.04651,0.124024 -0.07751,0.242879 -0.149862,0.242879 -0.06201,0 -0.129191,-0.160197 l -0.113688,0.186035 0.03617,0.06201 -0.02584,0.103353 0.09302,0.134358 q -0.08268,0.108521 -0.222209,0.408244 l -0.129191,0.165365 -0.02067,0.06201 -0.232544,0.24288 -0.03617,0.09302 -0.149862,0.1757 q -0.08268,0.09818 -0.10852,0.09818 -0.02584,0 -0.07235,-0.04651 h -0.07751 l -0.06718,-0.08785 q -0.09302,0.103352 -0.09302,0.160197 0,0.04651 0.07235,0.134358 -0.124023,0.118856 -0.315226,0.242879 -0.10852,0.07235 -0.170532,0.149862 -0.160197,-0.06718 -0.330729,-0.08785 l -0.02067,0.06201 q 0.06718,0.09302 0.08785,0.155029 -0.09819,0.09819 -0.3514,0.273885 L 56.399062,25.6712 q -0.04134,0.02067 -0.170533,0.144694 -0.118855,-0.108521 -0.217041,-0.113688 -0.03617,0.165364 -0.09302,0.211873 -0.02584,0.0155 -0.320394,0.09302 -0.03101,0.0052 -0.07752,0.04134 -0.191202,0.160197 -0.201538,0.160197 h -0.113688 q -0.02067,0 -0.144694,0.09302 -0.02584,0.02067 -0.227376,0.08785 -0.03617,0.0155 -0.09302,0.04134 -0.304891,0.144694 -0.434082,0.165365 -0.139526,0.01033 -0.341064,0.07235 l -0.496094,0.170532 -0.341064,0.03101 -0.129192,0.04134 -0.08785,0.01034 -0.191203,0.02584 h -0.113688 l -0.217041,0.05168 -0.294556,0.01034 -0.408244,0.03101 -0.09302,-0.0052 q -0.134359,-0.0052 -0.206706,-0.0155 l -0.785482,0.03101 q -0.0052,0 -0.04651,0.0155 -0.0155,0.0052 -0.03101,0.0052 -0.134358,0 -0.134358,-0.129191 0,-0.04134 0.03101,-0.06201 0.03617,-0.02067 0.237711,-0.09818 0.211874,-0.07752 0.299723,-0.139526 0.02067,-0.139527 0.103353,-0.248047 -0.0155,-0.165365 -0.0155,-0.242879 l 0.06718,-0.392741 v -0.0052 q 0,-0.05684 -0.0155,-0.124023 -0.02067,-0.07235 -0.02067,-0.07235 0,-0.0155 0.07235,-0.325562 0.01034,-0.04651 0.01034,-0.08785 0,-0.05168 -0.06201,-0.191203 l 0.423747,-0.118855 -0.408244,-0.656291 q 0,0 0.01033,-0.02067 0.19637,-0.04134 0.19637,-0.134358 0,-0.05684 -0.07235,-0.160197 -0.04651,0.02067 -0.08785,0.02067 -0.07752,0 -0.07752,-0.170532 l 0.01034,-0.129191 V 22.88584 q 0,-0.07235 -0.01034,-0.124023 -0.0052,-0.05168 -0.0052,-0.06201 0,-0.08268 0.08785,-0.222209 l -0.08785,-0.06201 v -0.149862 l 0.08268,-0.08268 q -0.09819,-0.09819 -0.09819,-0.232544 v -0.02067 -0.113688 q 0,-0.304891 -0.0155,-0.434082 -0.0052,-0.07235 -0.0052,-0.118856 0,-0.04651 0.03101,-0.113688 0.06201,0.01033 0.10852,0.01033 0.06718,0 0.06718,-0.05684 0,-0.0155 -0.06201,-0.07751 -0.04651,-0.06718 -0.09302,-0.103353 -0.129191,-0.01033 -0.139526,-0.118856 v 0 l 0.03617,-0.28422 -0.04134,-1.023194 0.03617,-0.03617 h 0.04134 q 0.05684,-0.165365 0.05684,-0.222209 0,-0.07235 -0.149862,-0.144694 -0.01033,-0.113688 -0.09819,-0.465088 l -0.01033,-0.186035 q -0.04134,-0.139526 -0.04134,-0.279053 -0.0052,-0.139526 -0.05684,-0.496093 -0.113689,0 -0.144694,-0.0052 -0.03101,-0.0052 -0.03101,-0.0052 -0.02584,0 -0.113688,0.03101 -0.05685,0.02584 -0.211874,0.02584 -0.03101,-0.06718 -0.03101,-0.113688 0,-0.113688 0.139527,-0.1757 0.08785,-0.03617 0.118855,-0.07751 z m 1.100708,1.162719 h 0.124024 q 0.04134,0.103353 0.06718,0.335897 l 0.02584,0.113688 -0.01033,0.33073 0.0155,0.191202 q -0.07751,0.170533 -0.07751,0.191203 0,0.02067 0.04134,0.165365 l -0.02067,0.377238 0.0052,0.10852 0.0052,0.170532 q 0.03617,0.165365 0.03617,0.196371 0,0.04134 -0.02584,0.09302 l -0.134359,-0.04134 q -0.03101,0.06201 -0.03101,0.09819 0,0.09302 0.07751,0.113688 0.01034,0.0052 0.05684,0.01034 0.04651,0.0052 0.124023,0.03101 -0.10852,0.10852 -0.165364,0.149861 -0.248047,0.186036 -0.248047,0.299724 0,0.0155 0.418579,0.65629 -0.04651,0.222209 -0.05168,0.397909 l -0.124023,0.05684 0.02584,0.05168 0.129191,0.04651 0.01034,0.05168 v 0.738973 q 0,0.687296 0.02584,0.733805 0.0052,0.03617 0.0052,0.05684 0,0.01034 -0.02584,0.170532 -0.0052,0.05168 -0.0052,0.08785 0,0.09302 0.05684,0.423747 0.0052,0.03101 0.0052,0.06201 0,0.04651 -0.03617,0.10852 l -0.211874,-0.06718 q -0.05684,0.08268 -0.05684,0.134358 0,0.170533 0.191203,0.170533 0.02584,0 0.05684,0 0.0052,0.113688 0.03101,0.227376 0.02067,0.09302 0.02067,0.341064 0,0.07751 0.04134,0.382406 -0.15503,0.108521 -0.211874,0.248047 l -0.149861,0.06201 v 0.03101 l 0.0155,0.02067 q 0.05168,-0.02067 0.06201,-0.02067 l 0.279053,0.01034 q 0.1757,0 0.196371,0.0052 0.02067,0.0052 0.09819,0.05168 l 0.07235,-0.103353 q 0.07235,0.01034 0.09819,0.01034 l 0.516764,-0.0155 q 0.01034,0 0.08785,0.03617 0.05168,-0.103353 0.09819,-0.129191 0.07235,-0.03101 0.217041,-0.03101 h 0.05168 q 0.289388,0 0.366903,-0.03101 l 0.139526,-0.06201 0.206706,-0.06201 q 0.454752,-0.186036 0.558105,-0.248047 l 0.165365,-0.04651 q 0.279052,-0.118856 0.310058,-0.129191 0.02067,0 0.118856,-0.0052 l 0.273885,-0.149861 q 0.186035,-0.04134 0.201538,-0.06201 0.0052,-0.0155 0.01034,-0.06201 0.103353,-0.04651 0.139527,-0.06201 0.180867,-0.07235 0.465088,-0.263549 0.160197,-0.07752 0.217041,-0.113689 0.03617,-0.02584 0.511596,-0.423746 l 0.289388,-0.227377 0.149862,-0.222208 0.253215,-0.237712 q 0.03617,-0.03101 0.09302,-0.139526 0.03617,-0.07752 0.341065,-0.444417 0.0052,-0.0052 0.05168,-0.129192 0.02067,-0.04651 0.108521,-0.217041 0.06201,-0.124023 0.06718,-0.28422 0.0052,-0.09302 0.113688,-0.335897 0.103353,-0.242879 0.08785,-0.299723 l 0.0052,-0.237712 0.04651,-0.279052 q 0.0155,-0.170533 0.03617,-0.248047 0.191203,-0.04134 0.191203,-0.284221 0,-0.144694 -0.191203,-0.232543 -0.01033,-0.134359 -0.06201,-0.366903 l -0.01033,-0.149862 q -0.06201,-0.186035 -0.06201,-0.217041 0,-0.06718 0.02067,-0.170532 -0.103353,-0.09302 -0.201538,-0.258382 -0.149862,-0.26355 -0.160197,-0.289388 -0.0052,-0.0052 -0.02067,-0.144694 l -0.05684,-0.05684 q -0.08268,0 -0.118856,-0.01034 -0.05168,-0.0052 -0.186035,-0.118855 0.03101,-0.08268 0.03101,-0.139527 0,-0.03617 -0.04651,-0.09818 -0.07751,-0.01034 -0.139526,-0.01034 -0.0155,0 -0.139527,0.02067 -0.0052,0 -0.01033,0 -0.03101,0 -0.315226,-0.232544 L 56.967675,18.529546 56.812646,18.405523 56.652449,18.328003 56.285546,18.1368 56.130517,18.09029 55.996158,18.04378 55.732609,18.00761 55.536238,17.95077 55.117659,17.88359 54.802433,17.81641 q -0.413412,-0.07235 -0.43925,-0.08785 -0.0155,-0.01034 -0.103353,-0.08785 -0.05168,-0.04651 -0.07751,-0.04651 -0.04651,0 -0.124024,0.04134 -0.05684,0.03101 -0.09819,0.03101 -0.0052,0 -0.1757,-0.02584 l -0.211873,-0.0052 -0.54777,-0.03617 -0.444418,0.0155 h -0.242879 -0.05168 -0.03101 q -0.06718,0 -0.124024,-0.02584 -0.139526,-0.05684 -0.155029,-0.05684 -0.0052,0 -0.08268,0.03101 -0.04134,0.0155 -0.129191,0.02584 -0.04651,0.08268 -0.04651,0.108521 l 0.0155,0.186035 -0.04134,0.149861 q -0.02067,0.180868 -0.05684,0.289388 l -0.09302,-0.03101 q -0.04651,0.07751 -0.04651,0.124024 0,0.03101 0.02067,0.05168 z"
         style="font-style:normal;font-variant:normal;font-weight:normal;font-stretch:normal;font-size:10.58333302px;font-family:Papyrus;-inkscape-font-specification:'Papyrus, Normal';font-variant-ligatures:normal;font-variant-caps:normal;font-variant-numeric:normal;font-feature-settings:normal;text-align:start;writing-mode:lr-tb;text-anchor:start;stroke-width:0.5;stroke-miterlimit:4;stroke-dasharray:none;fill:#ffffff"
         id="path827"
         inkscape:connector-curvature="0" />
      <path
         d="m 60.982761,27.040625 q 0.02067,-0.08785 0.04651,-0.170532 0.03101,-0.113688 0.04651,-0.149862 0.08785,-0.180867 0.08785,-0.222208 0,-0.03101 -0.05168,-0.113688 0.05684,-0.134359 0.103353,-0.506429 0.01033,-0.06201 0.06718,-0.15503 0.0155,-0.02584 0.0155,-0.05168 0,-0.03101 -0.06201,-0.134359 -0.01034,-0.02067 -0.01034,-0.07235 l 0.0052,-0.201538 V 24.59633 q 0.02067,-0.134359 0.02584,-0.160197 0.01033,-0.04134 0.08268,-0.07752 v -0.186035 q 0.113689,-0.103353 0.113689,-0.206705 0,-0.04134 -0.0052,-0.08785 l 0.0155,-0.01034 q -0.04651,-0.04651 -0.06201,-0.149861 l -0.05168,-0.217041 0.01034,-0.129191 -0.0052,-0.211874 q 0.05168,-0.248047 0.05168,-0.289388 0,-0.03101 -0.03617,-0.242879 l 0.0155,-0.294556 q 0,-0.0052 0,-0.02584 -0.0052,-0.05168 -0.0052,-0.08785 l 0.01033,-0.568441 q 0,-0.01034 0.0155,-0.04651 0.0052,-0.02584 0.0052,-0.04134 0,-0.07751 -0.04651,-0.24288 -0.01034,-0.03617 -0.01034,-0.06201 0,-0.04651 0.08785,-0.09302 v -0.315226 q -0.10852,-0.05168 -0.10852,-0.108521 0,-0.118855 0.03617,-0.465088 0.0052,-0.04651 0.0052,-0.07751 0,-0.0155 0,-0.04651 -0.05168,-0.738973 -0.05168,-0.775146 0,-0.299724 0.206706,-0.470256 -0.0155,-0.139526 -0.07751,-0.217041 l -0.160197,0.02067 q -0.0155,-0.06201 -0.0155,-0.108521 0,-0.01033 0.06201,-0.361735 l -0.03101,-0.06201 q -0.03617,-0.08268 -0.03617,-0.428914 0,-0.05168 -0.0155,-0.206706 l -0.129191,-0.129191 h -0.09302 l -0.01033,-0.05684 v -0.0052 q 0,-0.04651 0.02584,-0.07235 0.0052,-0.01033 0.139527,-0.08785 l 0.139526,-0.103353 0.103353,-0.03617 q 0.10852,-0.04134 0.232544,-0.06201 l 0.05168,-0.139526 q 0.217041,-0.01034 0.341065,-0.08785 0.04134,0.124024 0.04651,0.191203 0,0.0155 -0.0052,0.09302 -0.0052,0.05168 -0.01034,0.139526 l -0.02584,0.83199 v 0.341065 q -0.06201,0.04651 -0.07751,0.07235 -0.01033,0.02067 -0.0155,0.09818 0,0.129191 -0.0155,0.242879 l 0.134359,0.02584 q -0.0155,0.118855 -0.0155,0.160196 -0.05168,0.454753 -0.118856,0.744141 l 0.08268,0.08268 q -0.0052,0.258382 -0.08785,0.594279 -0.0052,0.04134 -0.01033,0.248047 l 0.124023,0.03101 q -0.04134,0.346232 -0.05168,0.43925 v 0.0052 l 0.01033,0.346232 q 0,0.02067 -0.02584,0.103353 l -0.113688,0.108521 0.05168,0.26355 0.124024,0.0155 -0.02584,0.05168 v 0.868164 l 0.03617,0.19637 v 0.284221 l 0.0052,0.201538 q 0,0.08268 -0.206706,0.217041 0,0.134359 0.02584,0.155029 0,0.02067 0.09819,0.08785 0.0155,0.08785 0.03617,0.118856 0.04134,0.06718 0.04134,0.08785 0,0 -0.0052,0.02067 -0.0155,0.05168 -0.01033,0.211874 l 0.02067,1.023193 -0.103353,0.108521 0.10852,0.06718 v 0.98702 0.07751 q -0.07235,0.01034 -0.08268,0.0155 l -0.186035,0.134359 q -0.04134,0.02067 -0.242879,0.05684 -0.09302,0.05684 -0.186035,0.108521 -0.113689,0.06718 -0.222209,0.06718 -0.06201,0 -0.1757,-0.04651 z"
         style="font-style:normal;font-variant:normal;font-weight:normal;font-stretch:normal;font-size:10.58333302px;font-family:Papyrus;-inkscape-font-specification:'Papyrus, Normal';font-variant-ligatures:normal;font-variant-caps:normal;font-variant-numeric:normal;font-feature-settings:normal;text-align:start;writing-mode:lr-tb;text-anchor:start;stroke-width:0.5;stroke-miterlimit:4;stroke-dasharray:none;fill:#ffffff"
         id="path829"
         inkscape:connector-curvature="0" />
      <path
         d="m 63.819797,22.131364 q -0.07751,-0.04651 -0.07751,-0.10852 0,-0.02584 0.06201,-0.258382 0.02067,-0.139527 0.129191,-0.511597 l 0.222209,-0.0155 q -0.0052,-0.06201 -0.07235,-0.201538 -0.0155,-0.03101 -0.0155,-0.07752 0,-0.06201 0.129191,-0.418579 0.04134,-0.211873 0.129191,-0.387573 0.06201,-0.103353 0.170532,-0.28422 0.07235,0.01033 0.09302,0.02067 0.07751,0.02584 0.08785,0.02584 0.03617,0 0.103352,-0.05684 0.06718,-0.01033 0.08785,-0.03101 0.02067,-0.02067 0.03617,-0.08268 l -0.124024,-0.0155 -0.05168,-0.186035 v 0 q 0,-0.05168 0.155029,-0.206706 0.03617,-0.03617 0.08268,-0.103352 0.06718,-0.113689 0.09302,-0.139527 0.08785,-0.08785 0.124024,-0.186035 l 0.03617,-0.03617 q 0.09302,-0.134359 0.149862,-0.1757 0.03101,-0.02584 0.211873,-0.144694 l 0.0155,0.0155 0.144694,-0.07235 0.01033,-0.118856 0.666626,-0.532267 q 0.03617,-0.03101 0.15503,-0.09302 l 0.139526,-0.09302 0.129191,-0.03617 q 0.201538,-0.139526 0.227376,-0.139526 0.04651,0 0.149862,0.05168 l 0.07235,-0.191203 0.211873,0.04134 0.0155,-0.09819 q 0.170533,-0.05168 0.227377,-0.07235 0.186035,-0.07235 0.37207,-0.08785 l 0.155029,-0.04651 q 0.180868,-0.03617 0.201538,-0.04651 0.04651,-0.02067 0.124024,-0.09302 0.07235,0.0052 0.124023,0.0052 0.06201,0 0.258382,-0.06718 0.07752,-0.02584 0.170533,-0.02584 0.07751,0 0.149861,0.02067 0.05684,0.0155 0.07235,0.01034 l 0.687297,-0.02067 q 0.19637,0.01034 0.361735,0.191203 0.113688,0.124024 0.139526,0.124024 0.09302,0 0.1757,-0.217041 0.165365,0.10852 0.279053,0.10852 0.03617,0 0.07235,-0.0052 0.139526,-0.03101 0.139526,-0.03101 l 0.165365,0.05684 q 0.682128,0.1757 0.878499,0.263549 v 0.15503 h -0.0052 q -0.08268,0.08268 -0.103353,0.10852 -0.191202,0.201538 -0.253214,0.201538 -0.05168,0 -0.170532,-0.06718 -0.294556,-0.118856 -0.676962,-0.258382 l -0.06718,-0.170532 q -0.103353,0.02067 -0.134359,0.03101 -0.08268,0.02584 -0.09819,0.02584 -0.02067,0 -0.335897,-0.108521 -0.09302,-0.03617 -0.118855,-0.07235 -0.02584,-0.03617 -0.04651,-0.07235 -0.170532,0.06718 -0.217041,0.06718 H 69.752251 69.33884 l -0.129191,-0.0155 q -0.232544,0.03617 -0.356568,0.08785 l -0.315226,0.03617 q -0.201538,0.04134 -0.315226,0.06201 -0.06201,0.01033 -0.201538,0.08785 l -0.258382,0.118855 -0.186036,0.129192 Q 67.0134,17.93007 66.81703,18.19362 q -0.129191,0.03617 -0.304891,0.144694 0,0.06201 -0.02067,0.118856 -0.103353,0.05168 -0.273885,0.222209 l -0.124023,0.113688 q -0.155029,0.211873 -0.201538,0.237711 -0.04651,0.03101 -0.08785,0.03101 -0.02067,0 -0.06201,-0.0052 0.03101,0.05684 0.03101,0.07235 0,0.0155 -0.253215,0.428914 -0.19637,0.206706 -0.227376,0.253215 -0.0155,0.03101 -0.118856,0.273885 l -0.10852,0.258382 -0.04651,0.149861 q -0.144694,0.253215 -0.180867,0.377238 -0.02067,0.08268 -0.06718,0.310059 -0.07751,0.304891 -0.08785,0.335897 -0.0155,0.07235 -0.170532,0.103353 0.0155,0.134358 0.118856,0.222208 -0.05168,0.134359 -0.05168,0.1757 0,0.113688 0.04134,0.284221 0.0052,0.0155 0.0052,0.02067 0,0.04651 -0.04651,0.06718 l -0.408243,0.15503 q -0.04651,0.0155 -0.04651,0.05684 0,0.02067 0.02584,0.05684 0.07752,0.118856 0.09819,0.1757 0.04134,0.10852 0.05168,0.113688 0.113688,0.09302 0.232544,0.191203 l 0.08785,0.237711 q 0.03617,0.07752 0.04651,0.186035 h -0.03101 l 0.03101,0.1757 0.07235,0.02067 q 0.05684,0.09819 0.05684,0.160197 h 0.0155 q 0.0155,0.103353 0.02067,0.134359 0.02584,0.160196 0.04651,0.19637 l 0.09302,0.186035 q 0.144694,0.377238 0.144694,0.444417 0,0.05168 -0.103353,0.05168 l 0.05168,0.129191 q 0.103353,-0.0052 0.160197,0.0155 0.05168,0.02067 0.09819,0.05168 0.103353,0.118856 0.19637,0.242879 l 0.15503,0.139527 0.118856,0.149862 q 0.206705,0.113688 0.28422,0.175699 0.0052,0.124024 0.08268,0.180868 0.09818,0.07235 0.248047,0.124023 l 0.232544,0.139527 0.1757,0.08268 0.160197,0.08268 0.170532,0.06718 0.118856,0.08785 q 0.05168,0.02584 0.103353,0.08785 0.07235,-0.07235 0.139526,-0.07235 0.01033,0 0.599447,0.160197 0.640787,0.0052 0.671793,0.0052 0.03617,0 0.08268,0.03101 0.08785,0.04651 0.149862,0.05684 0.07235,-0.04134 0.08785,-0.06718 0.04134,-0.03617 0.06201,-0.03617 l 0.06201,0.0052 0.03617,0.0052 0.418579,-0.05684 q 0.09819,-0.0052 0.465088,-0.103353 0.191203,0.05684 0.227376,0.05684 0.07752,0 0.258382,-0.118856 l 0.24288,-0.05684 q 0.222208,-0.07235 0.294555,-0.113688 l 0.118856,0.02584 q 0.06718,0.01034 0.43925,-0.113688 0.428914,-0.144694 0.449585,-0.15503 0.0155,-0.01034 0.08268,-0.09819 l 0.19637,-0.09819 q 0.160197,-0.09302 0.299724,-0.09302 0.03101,0 0.124023,0.03101 0.0052,-0.134359 0.04651,-0.165364 0.02584,-0.02584 0.1757,-0.08785 0.165364,-0.09819 0.186035,-0.09819 0.03617,0 0.10852,0.04651 -0.02067,0.273885 -0.10852,0.423747 -0.04651,0.07751 -0.07235,0.201538 -0.0155,0.04651 -0.06201,0.07752 -0.04134,0.02584 -0.434082,0.09302 -0.180867,0.07751 -0.242879,0.08785 -0.03617,0.01033 -0.279053,0.06718 l -0.227376,0.04651 -0.242879,0.06718 -0.217041,0.03101 q -0.320394,0.09819 -0.372071,0.09819 -0.05684,0 -0.160196,-0.0052 -0.07235,0 -0.211874,-0.0052 v 0.03101 q 0,0.09819 -0.124023,0.09819 -0.02067,0 -0.04134,-0.0052 -0.09819,-0.01034 -0.103353,-0.01034 -0.0052,0 -0.05684,0.01034 l -0.63562,0.144694 q -0.201539,0.04134 -0.465088,0.05168 l -0.392741,0.02067 q 0,0 -0.02067,0 -0.04651,0.07235 -0.129191,0.07751 -0.237711,0.01034 -0.408244,0.01034 -0.10852,0 -0.346232,-0.09302 -0.05168,-0.02067 -0.129191,-0.02067 -0.06718,0 -0.139526,0.09302 l -0.253215,-0.01034 q -0.09302,-0.144694 -0.1757,-0.144694 h -0.0155 q -0.108521,0 -0.191203,0.0052 -0.08268,0.01034 -0.09302,0.01034 -0.19637,0 -0.490926,-0.160197 -0.222209,-0.124023 -0.496094,-0.237712 -0.428914,-0.268717 -0.56844,-0.335896 l -0.03617,-0.09302 h 0.113688 q 0,-0.04134 0,-0.07235 0,-0.170532 -0.129191,-0.186035 -0.07752,0.08785 -0.129191,0.08785 -0.02584,0 -0.180867,-0.129191 l -0.3514,-0.242879 -0.108521,-0.149862 -0.05168,-0.05684 -0.180868,-0.268718 q -0.403076,-0.54777 -0.537434,-1.229899 l 0.103352,-0.06201 v -0.09819 l -0.113688,-0.07751 q 0,-0.118856 -0.04651,-0.222209 l -0.031,-0.10852 q -0.05685,-0.08785 -0.06201,-0.113689 -0.0052,-0.02067 -0.0052,-0.19637 l -0.02067,-0.227376 0.03101,-0.103353 q -0.05168,-0.149862 -0.05168,-0.196371 0,-0.118855 0.07751,-0.227376 0.01034,-0.01033 0.04134,-0.191203 z"
         style="font-style:normal;font-variant:normal;font-weight:normal;font-stretch:normal;font-size:10.58333302px;font-family:Papyrus;-inkscape-font-specification:'Papyrus, Normal';font-variant-ligatures:normal;font-variant-caps:normal;font-variant-numeric:normal;font-feature-settings:normal;text-align:start;writing-mode:lr-tb;text-anchor:start;stroke-width:0.5;stroke-miterlimit:4;stroke-dasharray:none;fill:#ffffff"
         id="path831"
         inkscape:connector-curvature="0" />
      <path
         style="font-style:normal;font-variant:normal;font-weight:normal;font-stretch:normal;font-size:10.58333302px;font-family:Papyrus;-inkscape-font-specification:'Papyrus, Normal';font-variant-ligatures:normal;font-variant-caps:normal;font-variant-numeric:normal;font-feature-settings:normal;text-align:start;writing-mode:lr-tb;text-anchor:start;stroke-width:1.88976383;stroke-miterlimit:4;stroke-dasharray:none;fill:#ffffff"
         d="m 301.69727,64.857422 c -0.20834,0 -0.44272,0.09768 -0.70313,0.292969 -0.1953,0.130208 -0.3255,0.33202 -0.39062,0.605468 -0.11721,-0.05204 -0.22138,-0.07813 -0.3125,-0.07813 -0.0912,0 -0.18232,0.110665 -0.27344,0.332032 -0.026,0.07811 -0.10417,0.240873 -0.23438,0.488281 l -0.37109,-0.273438 -1.58203,1.09375 v 0.410157 0.195312 0.136719 c 0,0.117188 0.0521,0.266932 0.15625,0.449219 -0.13019,0.208331 -0.27994,0.468758 -0.44922,0.78125 -0.18231,0.325511 -0.37112,0.579432 -0.56641,0.761718 v 0.07813 l 0.21485,0.195313 c -0.0912,0.195311 -0.2344,0.371098 -0.42969,0.527344 v 0.3125 l 0.50781,0.234375 0.0781,0.253906 -0.83985,0.07813 c -0.1172,0.273434 -0.18876,0.449221 -0.21484,0.527344 -0.20834,0.559887 -0.33854,0.878908 -0.39063,0.957031 -0.1432,0.2474 -0.21484,0.390645 -0.21484,0.429687 0,0.273366 -0.006,0.41646 -0.0195,0.429688 0,0.0651 -0.12369,0.279958 -0.37109,0.644531 -0.0651,0.07813 -0.16277,0.273446 -0.29297,0.585938 0.10416,0.208339 0.15625,0.364586 0.15625,0.46875 0,0.06512 -0.0325,0.175785 -0.0977,0.332031 l -0.39062,-0.566406 c -0.13021,0.195299 -0.25389,0.416654 -0.3711,0.664062 -0.1302,0.260425 -0.25389,0.442711 -0.37109,0.546875 0.0262,0.117203 0.0391,0.221376 0.0391,0.3125 0,0.05208 -0.013,0.09768 -0.0391,0.136719 -0.33855,0.494789 -0.5208,0.761739 -0.54688,0.800781 -0.026,0.03905 -0.052,0.175788 -0.0781,0.410156 l -0.52735,0.566407 -1.28906,2.5 c -0.63801,0.950517 -0.99609,1.510402 -1.07422,1.679687 -0.26043,0.651043 -0.41017,1.002606 -0.44922,1.054688 -0.45572,0.403634 -0.70963,0.638003 -0.76171,0.703125 -0.0391,0.0651 -0.0781,0.253915 -0.11719,0.566406 -0.41669,0.377594 -0.6706,0.657557 -0.76172,0.839844 l -0.39063,0.742187 c -0.026,0.06512 -0.15625,0.175786 -0.39062,0.332031 0.0652,0.195311 0.0977,0.345055 0.0977,0.449219 0,0.06512 -0.0196,0.169294 -0.0586,0.3125 l -0.0586,0.03906 c 0.22521,0.298869 -0.24372,0.767448 -0.24275,0.951454 0.11721,-0.02619 0.18877,0.485494 -0.68917,0.89286 -0.0473,0.02193 -0.33296,0.184149 -0.39621,0.32366 l -0.0391,0.195313 -1.93359,3.007812 -0.48828,0.644532 c -0.0262,0.03908 -0.0391,0.136723 -0.0391,0.292968 0,0.104164 0.006,0.227888 0.0195,0.371094 l -0.0781,0.07813 c -0.23429,0.06505 -0.35787,0.103959 -0.37109,0.117188 l -1.07422,1.953125 c -0.10417,0.156249 -0.40365,0.468751 -0.89844,0.9375 -0.35156,0.312499 -0.52734,0.605457 -0.52734,0.878906 0,0.09112 0.006,0.195297 0.0195,0.3125 -0.1042,0.195311 -0.22789,0.345055 -0.3711,0.449219 -0.26043,0.195326 -0.41017,0.319011 -0.44922,0.371093 -0.37761,0.520838 -0.63804,0.833338 -0.78125,0.937498 l -0.5664,0.35156 c -0.026,0.026 -0.0847,0.12369 -0.17578,0.29297 0.29946,0.0911 0.5729,0.26041 0.82031,0.50781 0.10416,-0.0132 0.19531,-0.0195 0.27344,-0.0195 0.1172,0 0.20182,0.0195 0.2539,0.0586 0.22138,0.1302 0.35159,0.19531 0.39063,0.19531 0.0911,0 0.22787,-0.0651 0.41015,-0.19531 0.10417,-0.0781 0.34505,-0.19532 0.72266,-0.35157 0.1953,-0.4427 0.38412,-0.72917 0.56641,-0.85937 0.11718,-0.0911 0.33204,-0.1953 0.64453,-0.3125 l 0.29297,-0.917968 c -0.29948,-0.247407 -0.44922,-0.442731 -0.44922,-0.585937 0,-0.104164 0.026,-0.175801 0.0781,-0.214844 l 1.07422,-0.683594 0.17578,-0.273437 c 0.19531,-0.325519 0.37759,-0.624989 0.54688,-0.898438 l 0.9375,-1.894531 c 0.026,-0.0651 0.16275,-0.240893 0.41015,-0.527344 -0.013,-0.143206 -0.0258,-0.253908 -0.0391,-0.332031 -0.0389,-0.195288 -0.0586,-0.332033 -0.0586,-0.410156 0,-0.09113 0.0521,-0.188805 0.15625,-0.292969 l 0.35156,0.07813 c 0.39063,-0.677083 0.6966,-1.191397 0.91797,-1.542969 0.31251,-0.377605 0.56643,-0.768232 0.76172,-1.171875 0.0391,-0.07812 0.13023,-0.234381 0.27344,-0.46875 0.32207,-0.620832 0.73781,-1.036173 0.85044,-1.06529 0.0521,-0.234375 0.32265,-0.273704 0.23437,-0.892857 -0.0269,-0.127938 0.21369,-0.28299 0.18472,-0.444196 0.0911,-0.221348 0.17578,-0.449226 0.2539,-0.683594 0.0651,-0.16927 0.24739,-0.49479 0.54688,-0.976563 l 0.23437,-0.546875 0.44922,-0.488281 0.52735,-0.976562 c 0.10408,-0.221341 0.16255,-0.455718 0.17578,-0.703125 0.026,-0.338552 0.10417,-0.546878 0.23437,-0.625 0.54688,-0.33854 1.12631,-1.093749 1.73828,-2.265625 0.29949,-0.520834 0.52735,-1.035156 0.6836,-1.542969 l -0.50782,-0.3125 0.15625,-0.253906 c 0.18228,0.013 0.39713,0.03252 0.64454,0.05859 h 0.0195 l 0.29297,-0.136718 -0.0977,-0.546875 c 0.45572,-0.15625 0.80728,-0.514324 1.05469,-1.074219 0.0651,-0.221382 0.21485,-0.403669 0.44922,-0.546875 0.0651,-0.260417 0.20182,-0.572927 0.41015,-0.9375 l 1.13281,-2.148438 c 0.35157,-0.494793 0.63801,-0.930981 0.85938,-1.308593 h 0.11719 c -0.013,-0.351564 0.0911,-0.742188 0.3125,-1.171875 0.11718,-0.221341 0.33853,-0.429674 0.66406,-0.625 0.20833,0.299478 0.39712,0.62499 0.56641,0.976562 l 0.33203,0.585938 0.35156,1.132812 0.64453,0.800781 0.29297,0.683594 0.29297,0.507813 0.11719,0.761718 c 0.013,0.03906 0.16926,0.279949 0.46875,0.722657 0.0521,0.07813 0.14323,0.253895 0.27343,0.527343 0.10417,-0.01323 0.19532,-0.01953 0.27344,-0.01953 0.19529,0 0.35808,0.104173 0.48828,0.3125 l -0.39062,0.175781 c -0.013,0.247397 0.0716,0.533845 0.2539,0.859375 0.24741,0.429687 0.41669,0.911458 0.50782,1.445313 l 0.21484,0.371094 0.48828,0.859375 0.42969,0.605468 0.13672,0.488282 c 0.026,0.09114 0.1107,0.286447 0.2539,0.585937 l 0.6836,-0.09766 c 0.10416,0.299459 0.15625,0.514326 0.15625,0.644531 0,0.234376 -0.0325,0.520843 -0.0977,0.859375 0.15625,0.247397 0.26042,0.481758 0.3125,0.703125 0.0651,0.247389 0.16276,0.462245 0.29297,0.644531 0.0651,0 0.32552,0.462239 0.78125,1.386719 0.11718,0.221363 0.29947,0.416653 0.54687,0.585938 0.013,0.208339 0.0325,0.364586 0.0586,0.46875 0.1172,0.377612 0.17578,0.598941 0.17578,0.664062 0,0.156246 0.13653,0.333023 0.0821,0.411941 0,0 0.26718,0.590386 0.0742,0.896651 0.50781,0 0.87238,0.234377 1.09375,0.703125 0.0781,0.156249 0.19532,0.651042 0.35156,1.484375 l 0.29297,0.683594 c 0.14321,0.664066 0.24738,1.074223 0.3125,1.230468 0.11718,0.247397 0.33204,0.579428 0.64453,0.996094 l 0.9375,-0.07813 c 0.0262,0.104164 0.0391,0.195315 0.0391,0.273438 0,0.07812 -0.0651,0.169273 -0.19531,0.273437 -0.0651,0.06513 -0.17578,0.195337 -0.33203,0.390625 l 0.58594,0.527344 c -0.13021,0.273456 -0.19531,0.488285 -0.19531,0.644531 0,0.05208 0.013,0.149763 0.0391,0.292969 0.013,0.3646 0.0258,0.566426 0.0391,0.605469 0.039,0.16927 0.17579,0.36457 0.41016,0.585937 -0.0132,0.117203 -0.0195,0.221376 -0.0195,0.3125 0,0.117188 0.17577,0.657552 0.52734,1.621087 0.19533,0.3125 0.31901,0.60546 0.37109,0.87891 0.0651,0.32552 0.26694,0.8724 0.60547,1.64062 0.72916,-0.29937 1.1849,-0.45551 1.36719,-0.46875 0.39061,-0.013 0.61847,-0.0325 0.68359,-0.0586 0.18229,-0.039 0.4948,-0.15624 0.9375,-0.35157 -0.0132,-0.11717 -0.0195,-0.21484 -0.0195,-0.29296 0,-0.22137 0.12369,-0.42971 0.3711,-0.625 -0.14323,-0.26042 -0.4948,-0.82033 -1.05469,-1.679694 -0.23437,-0.742198 -0.40365,-1.210962 -0.50781,-1.40625 -0.20833,-0.416667 -0.40366,-0.657535 -0.58594,-0.722657 -0.23438,-0.07812 -0.36455,-0.130171 -0.39063,-0.15625 -0.10416,-0.05209 -0.20833,-0.188789 -0.3125,-0.410156 0.37762,-0.182302 0.56641,-0.364588 0.56641,-0.546875 0,-0.377601 -0.39063,-0.77474 -1.17188,-1.191406 l 0.0391,-0.566406 -1.21094,-2.675782 c -0.18228,-0.273437 -0.32552,-0.553393 -0.42969,-0.839843 -0.0781,-0.221356 -0.46875,-0.996093 -1.17187,-2.324219 -0.50781,-0.92448 -0.78776,-1.529956 -0.83985,-1.816406 -0.0391,-1.197918 -0.72265,-2.428387 -2.05078,-3.691407 l 0.0586,-0.429687 -0.29297,-0.05859 c -0.13021,-0.117199 -0.23438,-0.299505 -0.3125,-0.546875 l 0.44922,-0.273437 -0.82032,-1.640625 -0.42968,-0.664063 c 0,-0.01302 -0.0196,-0.195303 -0.0586,-0.546875 -0.0521,-0.442707 -0.27995,-0.872396 -0.68359,-1.289062 -0.026,-0.351542 -0.0586,-0.566409 -0.0977,-0.644532 l -0.39062,-0.976562 -0.23438,-0.605469 c -0.026,-0.0651 -0.20181,-0.240893 -0.52734,-0.527344 -0.0651,-0.05209 -0.20183,-0.182297 -0.41016,-0.390625 0.15625,-0.247373 0.23438,-0.410158 0.23438,-0.488281 0,-0.104167 -0.0977,-0.397134 -0.29297,-0.878906 -0.27343,-0.690093 -0.53384,-1.074221 -0.78125,-1.152344 -0.52084,-0.156283 -0.81379,-0.247359 -0.87891,-0.273437 -0.10416,-0.0651 -0.21483,-0.227872 -0.33203,-0.488282 l 0.78125,-0.410156 v -0.46875 c 0,-0.208335 -0.0846,-0.651041 -0.25391,-1.328125 -0.28644,-0.507813 -0.45573,-0.963541 -0.50781,-1.367187 -0.013,-0.234376 -0.0912,-0.664065 -0.23437,-1.289063 -0.0391,-0.950521 -0.25391,-1.425781 -0.64453,-1.425781 z"
         transform="scale(0.26458333)"
         id="path833"
         inkscape:connector-curvature="0"
         sodipodi:nodetypes="cccsccccccsccccccccccccscccsccccsccccccccccccscccsccccscccccscccccccscscccccscccccccsccccccccccccccccccccccccccccccccccccccccsccccccccccsccccccsccccccccscccscccsccccccsccccccsccccccccccccccccccccscccccscccsc" />
      <path
         d="m 84.16481,25.283627 q 0.0052,-0.03617 0.144694,-0.273886 l 0.05684,-0.149861 q 0.186035,-0.222209 0.191203,-0.237712 0.01033,-0.0155 0.02584,-0.118856 0.03617,-0.0052 0.06718,-0.0052 0.04134,0 0.06718,0.02584 0.04651,0.04651 0.08785,0.108521 0.08268,0.134358 0.08268,0.134358 l -0.02584,0.160197 0.03617,0.139527 -0.0155,0.155029 q 0.06718,0.232544 0.170532,0.356567 l 0.103353,-0.04134 h 0.0052 q 0.0155,0 0.03617,0.0155 0.02584,0.01033 0.09819,0.258382 0.02584,0.08785 0.108521,0.155029 0.299723,0.248047 0.37207,0.289388 l 0.65629,0.258383 0.186036,0.113688 q 0.186035,0.02584 0.222208,0.03617 0.02584,0.01034 0.24288,0.108521 0.63562,0.129191 0.74414,0.139526 l 0.568441,0.02067 q 0.103353,0.0052 0.268717,0.0052 0.07752,0 0.103353,-0.01034 0.06201,-0.0155 0.06718,-0.0155 l 0.149861,0.04134 q 0.09302,-0.03617 0.465088,-0.08785 0.04134,0.0052 0.170532,0.05684 0.05684,0.0052 0.07235,0.0052 0.05168,0 0.139527,-0.129191 0.02584,-0.03617 0.06718,-0.03617 0.03101,0 0.07752,0.01034 0.03617,0.0052 0.06718,0.0052 0.0155,0 0.37207,-0.118855 l 0.129191,-0.01034 0.196371,-0.09302 q 0.387573,-0.118856 0.470255,-0.165365 0.05684,-0.03617 0.366903,-0.232544 0.206706,-0.180867 0.248047,-0.217041 0.03101,-0.03617 0.206706,-0.289388 l 0.113688,-0.09302 0.09819,-0.165365 q 0.08268,-0.103353 0.09819,-0.134359 0.01033,-0.0155 0.02584,-0.118855 -0.0155,-0.04651 0.15503,-0.299724 0.03617,-0.05684 0.05168,-0.160197 0.134359,-0.01034 0.180868,-0.03617 0.04134,-0.02584 0.06718,-0.139527 l -0.02067,-0.02067 h -0.10852 l 0.06718,-0.217041 q -0.06718,-0.07752 -0.06718,-0.118856 0,-0.02584 0.06718,-0.139526 0.03101,-0.06718 0.06201,-0.284221 0.103353,-0.315226 0.10852,-0.382405 0.0052,-0.134359 0.02067,-0.279053 h 0.113688 v -0.07752 l -0.170532,0.02584 q -0.03101,-0.170533 -0.217041,-0.687297 l 0.08268,-0.09819 -0.02067,-0.05168 q 0.129191,0.0052 0.191202,0.0052 0.377238,0 0.377238,-0.08268 0,-0.103353 -0.599446,-0.108521 -0.04651,0.103353 -0.118856,0.103353 -0.02584,0 -0.10852,-0.06718 -0.03617,-0.02584 -0.403077,-0.180868 -0.139526,-0.08785 -0.211873,-0.10852 -0.160197,-0.04651 -0.418579,-0.08268 l -0.118856,-0.04134 q -0.268717,-0.09302 -0.289388,-0.09302 -0.0052,0 -0.0155,0 v -0.01034 l -0.02584,-0.0155 -0.0052,0.02067 q -0.02067,0.03617 -0.02584,0.03617 l -0.403076,-0.09302 -0.08268,0.02584 q -0.222209,0.03101 -0.248047,0.03101 -0.03101,0 -0.07751,-0.04134 -0.0155,-0.103353 -0.118856,-0.103353 -0.04651,0 -0.160197,0.09819 -0.03617,0.03101 -0.113688,0.03101 v 0 q -0.05168,0 -0.149861,-0.01033 -0.108521,-0.01034 -0.129191,-0.01034 -0.346233,0 -0.346233,-0.0052 L 88.908707,21.0875 q -0.03617,-0.06201 -0.08268,-0.06201 -0.124023,0 -0.26355,0.434082 -0.01033,-0.387574 -0.10852,-0.490926 -0.02584,-0.02584 -0.06201,-0.04134 -0.07235,-0.03617 -0.07235,-0.03617 -0.387573,0.558105 -0.413411,0.558105 0,0 -0.211874,-0.07235 -0.258382,-0.03101 -0.361735,-0.07751 -0.139526,-0.07235 -0.144694,-0.07235 l -0.129191,-0.0155 -0.06201,-0.01034 h -0.139527 l -0.134359,-0.06718 Q 86.407567,20.99965 86.31455,20.927303 86.113012,20.767107 85.906306,20.441545 85.792618,20.25551 85.792618,20.136654 q 0,-0.05684 0.0155,-0.144694 -0.103353,-0.124023 -0.103353,-0.237712 0.08785,-0.08785 0.09302,-0.113688 l 0.04134,-0.310058 q 0.113688,-0.268718 0.134358,-0.284221 0.222209,-0.248046 0.43925,-0.490926 l 0.217041,-0.155029 0.268717,-0.217041 0.165365,-0.07752 0.180867,-0.09302 0.81132,-0.346232 q 0.26355,-0.134359 0.366903,-0.170533 0.320394,-0.10852 0.501261,-0.155029 l 0.661459,-0.1757 0.186035,-0.03617 0.945679,-0.08785 0.428914,-0.04134 q 0.0052,0 0.217041,0.0155 l 0.26355,0.02067 0.139526,0.03617 q 0.217041,0.03101 0.61495,0.134358 l 0.04134,0.191203 q -0.124024,0.09302 -0.165365,0.118856 -0.07751,0.05684 -0.09819,0.07235 -0.08785,0.06718 -0.139526,0.09302 -0.113689,-0.06201 -0.15503,-0.06718 h -0.160197 l -0.294555,-0.09819 -0.186035,0.01033 q -0.0155,0 -0.144694,-0.165364 -0.118856,-0.160197 -0.346232,-0.160197 -0.201539,0 -0.299724,0.08785 -0.06201,0.05168 -0.134358,0.201538 -0.06718,-0.07235 -0.09819,-0.07235 h -0.07235 q -0.217041,0 -0.408244,0.07751 l -0.48059,0.08785 -0.428915,0.139527 q -0.19637,-0.04651 -0.211873,-0.04651 -0.05684,0 -0.201538,0.05684 v 0.124023 l -0.532267,0.201539 -0.05168,0.09819 q -0.315226,0.04651 -0.490926,0.268717 -0.07751,-0.02584 -0.134359,-0.02584 -0.09819,0 -0.180867,0.170532 -0.217041,0.06718 -0.37207,0.268718 -0.227377,0.299723 -0.227377,0.542602 0,0.118856 0.03617,0.361735 0.0155,0.113688 0.134358,0.222209 0.289389,0.26355 0.397909,0.294555 l 0.242879,0.06718 q 0.26355,0.09302 0.346232,0.320394 0.0052,0.01034 0.06201,0.03617 0.05168,0.03101 0.108521,0.03101 0.0155,0 0.10852,-0.03617 0.0155,-0.0052 0.04134,-0.0052 0.03101,0 0.07235,0.0052 0.0052,-0.09302 0.04134,-0.149862 0.08268,0.03101 0.09819,0.03101 l 0.242879,-0.03101 0.392741,0.08268 q 0,0 0.129191,-0.0155 0.03101,-0.0052 0.05168,-0.0052 0.108521,0 0.37207,0.06718 l 0.02067,0.144694 q 0.08785,0.02067 0.139526,0.02067 0.02067,0 0.07235,-0.0052 -0.05168,-0.05684 -0.05168,-0.09302 0,-0.06201 0.09302,-0.06201 l 0.175699,0.01033 h 1.183391 q 0.03617,0.03617 0.03617,0.06718 0,0.05168 -0.03101,0.118856 0.07752,0.08268 0.113688,0.08268 0.05168,0 0.139527,-0.129191 0.06718,0.02584 0.10852,0.02584 0.0155,0 0.26355,-0.108521 0.09302,0.02584 0.108521,0.03101 0.335896,0.04134 0.434082,0.09302 l 0.191202,0.09819 0.640788,0.206705 q 0.0155,0.0052 0.09819,0.06718 0.07752,0.05168 0.124024,0.07751 0.227376,0.129191 0.273885,0.191203 0.02584,0.02584 0.06201,0.124024 -0.04651,0.08268 -0.04651,0.134358 0,0.02067 0.0052,0.05684 l 0.165365,0.0155 q 0.139526,0.237712 0.129191,0.496094 0.07751,0.346232 0.07751,0.434082 v 0.160197 0.06718 q 0,0.149862 0,0.191203 0,0.04134 0,0.06718 0,0.08268 -0.08268,0.232543 -0.01034,0.0155 -0.01034,0.03617 0,0.04134 0.03101,0.144694 -0.07235,0.08268 -0.07752,0.118856 l -0.01033,0.124023 q -0.144694,0.330729 -0.201538,0.392741 l -0.0052,0.144694 -0.134358,0.196371 -0.01034,0.02584 q -0.01033,0.03617 -0.01033,0.04651 0,0.04651 0.02584,0.10852 -0.124023,0.155029 -0.155029,0.211873 -0.09819,0.144694 -0.248047,0.315227 l -0.1757,0.258382 -0.118855,0.103353 -0.206706,0.217041 q -0.180868,0.180867 -0.242879,0.258382 -0.04134,0.05168 -0.07751,0.05168 v 0 l -0.09819,-0.04651 0.04651,-0.06718 -0.268718,0.170532 0.03617,0.139527 q -0.268718,0.180867 -0.682129,0.377238 -0.377238,0.180867 -0.485759,0.19637 l -0.304891,0.03617 q -0.454752,0.09302 -0.63562,0.155029 l -0.315226,0.04651 -0.139526,0.02584 h -0.180868 l -0.211873,0.0155 q -0.1757,-0.05168 -0.201538,-0.05684 -0.05684,-0.0052 -0.180868,0 -0.118856,0.0052 -0.211873,-0.06718 -0.113688,0.124024 -0.248047,0.124024 -0.02067,0 -0.165365,-0.07752 -0.03101,-0.02067 -0.08268,-0.02067 l -0.341064,0.0052 q -0.03617,0 -0.108521,-0.0052 -0.07235,-0.180868 -0.232544,-0.180868 -0.07751,0 -0.134359,0.113688 -0.09302,-0.04651 -0.217041,-0.09819 -0.113688,-0.04651 -0.248046,-0.04651 -0.165365,-0.07751 -0.222209,-0.09302 -0.113688,-0.02584 -0.206706,-0.05168 v -0.134359 q -0.149861,-0.03617 -0.160197,-0.06718 -0.02584,-0.0052 -0.06718,-0.149862 l -0.08785,0.02067 -0.0155,0.149862 q -0.04651,-0.0052 -0.377238,-0.113688 l -0.620117,-0.501262 -0.0155,-0.0052 q -0.0052,-0.07752 -0.02584,-0.103353 -0.0155,-0.02584 -0.113688,-0.118856 -0.02584,-0.02067 -0.211874,-0.268718 -0.10852,-0.160197 -0.201538,-0.248046 z"
         style="font-style:normal;font-variant:normal;font-weight:normal;font-stretch:normal;font-size:10.58333302px;font-family:Papyrus;-inkscape-font-specification:'Papyrus, Normal';font-variant-ligatures:normal;font-variant-caps:normal;font-variant-numeric:normal;font-feature-settings:normal;text-align:start;writing-mode:lr-tb;text-anchor:start;stroke-width:0.5;stroke-miterlimit:4;stroke-dasharray:none;fill:#ffffff"
         id="path835"
         inkscape:connector-curvature="0" />
      <path
         d="m 94.417414,17.506324 q 0.129191,-0.04134 0.5271,-0.273885 0.129191,-0.07235 0.335897,-0.07235 0.206705,0 0.45992,0.165364 l 0.201538,0.02584 q 0.273885,0.04134 0.454753,0.05684 l 0.620117,0.04651 0.222208,0.02584 h 0.0052 q 0.02584,0 0.108521,-0.0052 0.289388,-0.03101 0.428914,-0.03101 0.07235,0 0.222209,0.01034 l 0.72347,0.04134 q 0.02067,0.0052 0.206705,-0.05684 0.03617,-0.0155 0.06718,-0.0155 0.01033,0 0.139526,0.03617 0.232544,0.0155 0.310059,0.04134 0.05168,0.0155 0.206705,0.07235 0.206706,-0.118856 0.33073,-0.118856 0.03618,0 0.377234,0.06718 l 0.16537,-0.03101 q 0.16536,0.03617 0.18603,0.03617 l 0.1447,-0.0052 0.3669,0.0052 0.27905,-0.0155 0.0982,0.0052 q 0.1757,0.0052 0.1912,0.01033 l 0.22737,0.07235 q 0,0 0.0258,-0.0155 l 0.0672,-0.139526 q 0.16537,0.02067 0.23771,0.02067 l 0.34107,-0.06201 h 0.0103 q 0.0155,0.02584 0.11369,0.248047 l 0.0879,-0.149862 q 0.005,-0.0155 0.1912,-0.0155 0.0103,0 0.27906,-0.134359 0.0207,-0.01033 0.0362,-0.01033 0.0465,0 0.062,0.03617 l 0.11369,0.248047 0.26872,-0.289388 0.11369,-0.02584 0.12919,-0.05168 v 0 q 0.0879,0.01034 0.12402,0.09302 l -0.10852,0.09302 -0.0207,0.08785 q -0.10852,0.04651 -0.12919,0.07235 l -0.12402,0.165365 q -0.0207,0.02584 -0.13436,0.08268 -0.11886,0.05684 -0.23771,0.05684 -0.0414,0 -0.10853,-0.01034 -0.1757,-0.03617 -0.21704,-0.03617 -0.0465,0 -0.0982,0.0052 -0.13953,0.02067 -0.16537,0.02067 -0.062,0 -0.21704,-0.03617 -0.13436,-0.02584 -0.24288,-0.02584 -0.0207,0 -0.39274,0.04651 -0.093,0.01034 -0.1757,0.01034 -0.0258,0 -0.57361,-0.03101 l -0.20153,0.03101 -0.33073,-0.191203 -0.14986,0.191203 -0.10336,-0.03617 -0.13952,-0.01033 -0.24288,-0.02067 q 0,0 -0.062,0.02067 -0.06718,0.02067 -0.129194,0.02067 h -0.0052 q -0.03617,0 -0.335897,-0.02584 -0.06718,-0.0052 -0.124024,-0.0052 -0.08268,0 -0.144694,0.03617 0.03101,0.04134 0.03101,0.04651 0,0.03617 -0.186035,0.191203 -0.02584,0.02067 -0.160197,0.253214 -0.02067,0.03617 -0.134359,0.1757 -0.08785,0.108521 -0.08785,0.144694 0,0.144694 0.320394,0.258382 0.15503,0.05684 0.15503,0.09819 0,0.0052 -0.06201,0.103353 -0.03101,0.04651 -0.04651,0.144694 h -0.08785 l 0.01033,0.165365 0.124024,0.06718 q 0.05168,0.09819 0.05168,0.144694 0,0.05168 -0.02067,0.196371 -0.01034,0.07235 -0.01034,0.155029 0,0.08785 0.03617,0.490926 l 0.0155,0.258382 q 0.0052,0.160197 0.0155,0.268718 0.01034,0.134358 0.01034,0.149861 0,0.103353 -0.06201,0.129191 -0.0052,0.0052 -0.07235,0.02584 -0.04134,0.01033 -0.103352,0.06201 v 0.03101 l -0.0155,0.0155 0.118855,0.09819 v 0.170533 l 0.144694,0.06718 q -0.449585,0.237711 -0.449585,0.470255 0,0.217041 0.434082,0.377238 -0.06718,0.07235 -0.06718,0.124024 0,0.04651 0.02067,0.227376 0.0052,0.05168 0.0052,0.108521 0,0.03617 -0.0052,0.10852 l 0.05684,0.02584 q -0.03617,0.217041 -0.03617,0.299724 v 0.0052 l 0.0155,0.201538 q 0.01033,0.273885 0.0155,0.315227 0.0052,0.02584 0.05168,0.170532 -0.07752,0.191203 -0.07752,0.248047 0,0.04134 0.0052,0.10852 l -0.0155,0.0155 q -0.186036,0.02584 -0.186036,0.124024 v 0.0052 l 0.03101,0.113688 0.170533,-0.04651 q 0.0052,0.103352 0.02067,0.139526 0.03101,0.09819 0.03101,0.10852 0,0.0052 -0.02067,0.09302 -0.0052,0.03101 -0.0052,0.06718 0,0.04134 0.02584,0.43925 0.0052,0.06718 -0.05168,0.475423 -0.01034,0.08785 -0.01034,0.165365 0,0.04651 0.06718,0.289388 -0.03101,0.191203 -0.05168,0.211873 -0.03101,0.02067 -0.180867,0.06201 -0.09819,0.03101 -0.139527,0.06718 l -0.07751,0.08268 q -0.124024,0 -0.139527,0.01034 -0.299723,0.186035 -0.392741,0.227376 -0.08785,-0.103353 -0.08785,-0.170532 0,-0.02067 0.04651,-0.186035 l -0.0052,-0.149862 0.03617,-0.144694 0.02067,-0.273885 0.02067,-0.155029 q 0,-0.186035 0.02067,-0.237712 0.03101,-0.07235 0.155029,-0.1757 -0.103353,-0.10852 -0.103353,-0.180867 v -0.0052 l 0.0155,-0.227376 v -0.268718 q 0.0155,-0.201538 0.0155,-0.315226 l 0.07752,-0.09302 q -0.0052,-0.05684 -0.0052,-0.08268 0,-0.04651 0.0155,-0.144694 l -0.08268,-0.07751 h -0.02067 l 0.03101,-0.108521 v -0.842326 q -0.0052,-0.04134 0.02067,-0.1757 0.02584,-0.134358 0.02584,-0.222208 0,-0.03101 -0.03101,-0.196371 l -0.02584,-0.237711 q -0.01033,-0.09818 -0.01033,-0.113688 0,-0.01034 0.06718,-0.206706 0.0052,-0.118856 0.0155,-0.134359 0.0155,-0.04134 0.139526,-0.06201 v -0.09302 l -0.165364,0.03617 q -0.03617,-0.129191 -0.03617,-0.170532 0,-0.04651 0.02584,-0.160197 0.01034,-0.04651 0.02584,-0.144694 -0.07235,-0.02584 -0.118856,-0.05168 l 0.0155,-0.124024 v -0.992187 q 0,-0.08785 0.19637,-0.1757 0.196371,-0.09302 0.196371,-0.139526 0,-0.02584 -0.201539,-0.139527 -0.08785,-0.04651 -0.206705,-0.155029 0.118856,-0.05684 0.118856,-0.108521 0,-0.0052 -0.05685,-0.191202 -0.0052,-0.0155 -0.0052,-0.04134 0,-0.05684 0.01034,-0.129192 -0.139526,-0.155029 -0.139526,-0.37207 0,-0.05168 0.07751,-0.170532 -0.04134,-0.134359 -0.05684,-0.1757 -0.01033,-0.02584 -0.01033,-0.02584 0.0052,-0.139527 0.45992,-0.341065 0.04651,-0.02067 0.04651,-0.04134 0,-0.0155 -0.480591,-0.118856 -0.05684,-0.01034 -0.05684,-0.07235 0,-0.02067 0.02067,-0.06201 -0.165365,-0.07235 -0.501262,-0.08268 -0.103353,0 -0.304891,-0.0155 -0.01033,0 -0.0155,0 -0.02067,0 -0.248046,0.03617 l -0.397909,-0.03101 q -0.02067,0 -0.10852,0.03617 -0.08268,-0.06201 -0.149862,-0.06201 h -0.01033 q -0.113689,0 -0.118856,0 l -0.273885,-0.09302 -0.08268,0.03617 -0.09819,0.04134 -0.1757,0.08268 q -0.217041,-0.04651 -0.242879,-0.04651 -0.04651,0 -0.273885,0.031 h -0.248047 l -0.186035,0.0052 q -0.04651,0 -0.268717,-0.05168 -0.0155,-0.0052 -0.06201,-0.0052 -0.08785,0 -0.304891,0.02584 -0.0052,-0.01034 -0.01033,-0.02584 -0.01034,-0.01034 -0.01034,-0.0155 0,-0.03617 0.07235,-0.10852 0.04134,-0.03617 0.08785,-0.118856 z"
         style="font-style:normal;font-variant:normal;font-weight:normal;font-stretch:normal;font-size:10.58333302px;font-family:Papyrus;-inkscape-font-specification:'Papyrus, Normal';font-variant-ligatures:normal;font-variant-caps:normal;font-variant-numeric:normal;font-feature-settings:normal;text-align:start;writing-mode:lr-tb;text-anchor:start;stroke-width:0.5;stroke-miterlimit:4;stroke-dasharray:none;fill:#ffffff"
         id="path837"
         inkscape:connector-curvature="0" />
    </g>
    <path
       d="m 80.057142,23.34478 -0.06498,0.08493 -0.151617,0.159732 -0.148348,0.08075 0.02923,0.230636 c -0.0794,0.01879 -0.216573,0.184011 -0.411502,0.495397 -0.202134,0.01879 -0.202134,0.231884 -0.389842,0.307357 -0.05052,-0.0095 -0.0099,-0.14161 -0.03866,-0.226489 -0.02165,-0.07549 -0.05415,-0.113227 -0.09747,-0.113227 h -0.06498 c 0,-0.07549 0.02983,-0.299263 9.74e-4,-0.299263 -0.02165,0 -0.0036,-0.122644 -0.03248,-0.08493 l -0.09999,0.09707 v 0 l -0.09594,-0.06672 -0.08663,-0.113227 -0.01545,-0.08491 -0.145438,-0.428667 0.11448,-0.05864 c 0.08065,-0.0413 0.08663,-0.231172 0.259894,-0.353855 0.180494,-0.132106 0.316555,-0.61087 0.345432,-0.733537 l 0.08663,-0.08493 c 0.144387,0.08493 0.201758,0.327024 0.295616,0.345885 0.101071,0.0095 0.123216,0.249556 0.224283,0.381592 0.101072,0.132106 0.150013,0.07078 0.287175,0.155693 z"
       style="font-style:normal;font-variant:normal;font-weight:normal;font-stretch:normal;font-size:10.58333302px;line-height:1.25;font-family:'Bradley Hand ITC';-inkscape-font-specification:'Bradley Hand ITC, Normal';font-variant-ligatures:normal;font-variant-caps:normal;font-variant-numeric:normal;font-feature-settings:normal;text-align:start;letter-spacing:0px;word-spacing:0px;writing-mode:lr-tb;text-anchor:start;fill:#ffffff;fill-opacity:1;stroke:none;stroke-width:0.5;stroke-miterlimit:4;stroke-dasharray:none"
       id="path853-2"
       inkscape:connector-curvature="0"
       sodipodi:nodetypes="ccccccccscscccccccsccccccc" />
  </g>
</svg>
