<svg id="Layer_1" data-name="Layer 1" xmlns="http://www.w3.org/2000/svg" viewBox="0 0 1200 1200"><defs><style>.cls-1{fill:#09a8a4;}.cls-2{fill:#13736a;}.cls-3{fill:#231025;}.cls-4{fill:#8b272e;}.cls-5{fill:#f32c39;}</style></defs><polygon class="cls-1" points="900.06 734.8 600.32 932.75 600.32 1192.31 812.37 1025.07 900.06 734.8"/><polygon class="cls-2" points="300.62 734.42 384.53 1025.45 600.32 1192.31 600.32 932.75 300.62 734.42"/><polygon class="cls-3" points="300.62 734.42 600.32 586.65 900.06 734.8 600.32 932.75 300.62 734.42"/><polygon class="cls-4" points="600.3 693.35 715.24 759.71 600.3 826.06 600.3 693.35"/><polygon class="cls-5" points="600.3 693.35 485.35 759.71 600.3 826.06 600.3 693.35"/><polygon class="cls-1" points="955.12 453.59 600.32 640.49 600.32 762.95 925.15 575.73 955.12 453.59"/><polygon class="cls-2" points="245.56 453.59 600.34 640.49 600.34 762.95 272.4 569.02 245.56 453.59"/><polygon class="cls-5" points="516.23 515.78 600.34 481.77 600.35 379.44 415.57 452.25 516.23 515.78"/><polygon class="cls-4" points="680.87 518.91 802.12 455.83 600.35 379.44 600.34 481.89 680.87 518.91"/><path class="cls-3" d="M600.34,314.9,245.56,453.59l354.8,186.9,354.76-186.9ZM423.17,454.46l177.39-69.35L778,454.46,600.58,547.9Z"/><polygon class="cls-3" points="496.4 24.63 600.34 8 687.65 28.41 600.34 48.52 496.4 24.63"/><polygon class="cls-5" points="687.65 28.41 600.34 48.63 600.34 98.33 684.62 80.94 687.65 28.41"/><polygon class="cls-3" points="600.34 98.33 684.62 80.94 805.95 98.33 709.95 125.54 600.34 98.33"/><polygon class="cls-4" points="600.34 98.33 600.34 48.63 496.4 24.63 505.1 122.9 600.29 149.6 600.72 234.77 698.61 264.25 709.95 125.54 600.34 98.33"/><polygon class="cls-3" points="409.85 149.73 505.1 122.9 600.34 149.73 500.94 179.59 409.85 149.73"/><polygon class="cls-5" points="600.34 149.73 500.94 178.08 505.85 265.39 600.72 234.77 600.34 149.73"/><polygon class="cls-3" points="505.85 265.39 600.72 234.77 698.61 264.25 600.34 300.01 505.85 265.39"/><polyline class="cls-5" points="600.34 299.16 698.61 264.25 709.95 125.54 805.95 98.33 775.33 299.02 600.34 378.39"/><polyline class="cls-4" points="600.34 378.39 600.34 299.16 505.85 265.39 500.94 179.59 409.85 149.73 425.43 299.11"/></svg>