<?xml version="1.0" encoding="UTF-8" standalone="no"?>
<svg
   xmlns:dc="http://purl.org/dc/elements/1.1/"
   xmlns:cc="http://creativecommons.org/ns#"
   xmlns:rdf="http://www.w3.org/1999/02/22-rdf-syntax-ns#"
   xmlns:svg="http://www.w3.org/2000/svg"
   xmlns="http://www.w3.org/2000/svg"
   xmlns:xlink="http://www.w3.org/1999/xlink"
   xmlns:sodipodi="http://sodipodi.sourceforge.net/DTD/sodipodi-0.dtd"
   xmlns:inkscape="http://www.inkscape.org/namespaces/inkscape"
   id="Layer_1"
   data-name="Layer 1"
   viewBox="0 0 1200 1200"
   version="1.1"
   sodipodi:docname="dicast_setter2.svg"
   inkscape:version="0.92.5 (2060ec1f9f, 2020-04-08)">
  <metadata
     id="metadata47">
    <rdf:RDF>
      <cc:Work
         rdf:about="">
        <dc:format>image/svg+xml</dc:format>
        <dc:type
           rdf:resource="http://purl.org/dc/dcmitype/StillImage" />
        <dc:title></dc:title>
      </cc:Work>
    </rdf:RDF>
  </metadata>
  <sodipodi:namedview
     pagecolor="#ffffff"
     bordercolor="#666666"
     borderopacity="1"
     objecttolerance="10"
     gridtolerance="10"
     guidetolerance="10"
     inkscape:pageopacity="0"
     inkscape:pageshadow="2"
     inkscape:window-width="1920"
     inkscape:window-height="1014"
     id="namedview45"
     showgrid="false"
     inkscape:zoom="0.55625733"
     inkscape:cx="560.10098"
     inkscape:cy="607.07352"
     inkscape:window-x="1600"
     inkscape:window-y="0"
     inkscape:window-maximized="1"
     inkscape:current-layer="Layer_1" />
  <defs
     id="defs4">
    <style
       id="style2">.cls-1{fill:#09a8a4;}.cls-2{fill:#13736a;}.cls-3{fill:#231025;}.cls-4{fill:#8b272e;}.cls-5{fill:#f32c39;}</style>
    <marker
       style="overflow:visible"
       id="Dot_l"
       refX="0"
       refY="0"
       orient="auto"
       inkscape:stockid="Dot_l">
      <path
         transform="matrix(0.8,0,0,0.8,5.92,0.8)"
         style="fill-rule:evenodd;stroke:#000000;stroke-width:1pt;marker-start:none;marker-end:none"
         d="M -2.5,-1 C -2.5,1.76 -4.74,4 -7.5,4 C -10.26,4 -12.5,1.76 -12.5,-1 C -12.5,-3.76 -10.26,-6 -7.5,-6 C -4.74,-6 -2.5,-3.76 -2.5,-1 z "
         id="path29078" />
    </marker>
    <marker
       style="overflow:visible"
       id="Dot_m"
       refX="0"
       refY="0"
       orient="auto"
       inkscape:stockid="Dot_m">
      <path
         transform="matrix(0.4,0,0,0.4,2.96,0.4)"
         style="fill-rule:evenodd;stroke:#000000;stroke-width:1pt;marker-start:none;marker-end:none"
         d="M -2.5,-1 C -2.5,1.76 -4.74,4 -7.5,4 C -10.26,4 -12.5,1.76 -12.5,-1 C -12.5,-3.76 -10.26,-6 -7.5,-6 C -4.74,-6 -2.5,-3.76 -2.5,-1 z "
         id="path29081" />
    </marker>
    <marker
       style="overflow:visible"
       id="Arrow2Lstart"
       refX="0"
       refY="0"
       orient="auto"
       inkscape:stockid="Arrow2Lstart">
      <path
         transform="matrix(1.1,0,0,1.1,1.1,0)"
         d="M 8.7185878,4.0337352 L -2.2072895,0.016013256 L 8.7185884,-4.0017078 C 6.97309,-1.6296469 6.9831476,1.6157441 8.7185878,4.0337352 z "
         style="font-size:12px;fill-rule:evenodd;stroke-width:0.625;stroke-linejoin:round"
         id="path29034" />
    </marker>
    <linearGradient
       id="linearGradient22604"
       inkscape:collect="always">
      <stop
         id="stop22606"
         offset="0"
         style="stop-color:#000000;stop-opacity:1;" />
      <stop
         id="stop22608"
         offset="1"
         style="stop-color:#000000;stop-opacity:0;" />
    </linearGradient>
    <linearGradient
       gradientTransform="matrix(1.0662802,0.00333285,-0.00333285,1.0662802,-5.2045243,-41.262772)"
       y2="374.79123"
       x2="456.55679"
       y1="225.61539"
       x1="456.55679"
       gradientUnits="userSpaceOnUse"
       id="linearGradient23727"
       xlink:href="#linearGradient22604"
       inkscape:collect="always" />
    <linearGradient
       gradientTransform="matrix(1.0662802,0.00333285,-0.00333285,1.0662802,-5.2045243,-41.262772)"
       y2="363.48779"
       x2="425.26727"
       y1="410.49139"
       x1="425.26727"
       gradientUnits="userSpaceOnUse"
       id="linearGradient23757"
       xlink:href="#linearGradient22604"
       inkscape:collect="always" />
  </defs>
  <polygon
     class="cls-1"
     points="600.32,932.75 600.32,1192.31 812.37,1025.07 900.06,734.8 "
     id="polygon6"
     transform="translate(-142.0206,-10.786375)"
     style="fill:#09a8a4" />
  <polygon
     class="cls-2"
     points="384.53,1025.45 600.32,1192.31 600.32,932.75 300.62,734.42 "
     id="polygon8"
     transform="translate(-142.0206,-10.786375)"
     style="fill:#13736a" />
  <polygon
     class="cls-3"
     points="600.32,586.65 900.06,734.8 600.32,932.75 300.62,734.42 "
     id="polygon10"
     transform="translate(-142.0206,-10.786375)"
     style="fill:#231025" />
  <polygon
     class="cls-4"
     points="715.24,759.71 600.3,826.06 600.3,693.35 "
     id="polygon12"
     transform="translate(-142.0206,-10.786375)"
     style="fill:#8b272e" />
  <polygon
     class="cls-5"
     points="485.35,759.71 600.3,826.06 600.3,693.35 "
     id="polygon14"
     transform="translate(-142.0206,-10.786375)"
     style="fill:#f32c39" />
  <polygon
     class="cls-1"
     points="600.32,640.49 600.32,762.95 925.15,575.73 955.12,453.59 "
     id="polygon16"
     transform="translate(-142.0206,-10.786375)"
     style="fill:#09a8a4" />
  <polygon
     class="cls-2"
     points="600.34,640.49 600.34,762.95 272.4,569.02 245.56,453.59 "
     id="polygon18"
     transform="translate(-142.0206,-10.786375)"
     style="fill:#13736a" />
  <polygon
     class="cls-5"
     points="600.34,481.77 600.35,379.44 415.57,452.25 516.23,515.78 "
     id="polygon20"
     transform="translate(-142.0206,-10.786375)"
     style="fill:#f32c39" />
  <polygon
     class="cls-4"
     points="802.12,455.83 600.35,379.44 600.34,481.89 680.87,518.91 "
     id="polygon22"
     transform="translate(-142.0206,-10.786375)"
     style="fill:#8b272e" />
  <path
     class="cls-3"
     d="m 458.3194,304.11363 -354.78,138.69 354.8,186.9 354.76,-186.9 z m -177.17,139.56 177.39,-69.35 177.44,69.35 -177.42,93.44 z"
     id="path24"
     inkscape:connector-curvature="0"
     style="fill:#231025" />
  <polygon
     class="cls-3"
     points="600.34,8 687.65,28.41 600.34,48.52 496.4,24.63 "
     id="polygon26"
     transform="translate(-142.0206,-10.786375)"
     style="fill:#231025" />
  <polygon
     class="cls-5"
     points="600.34,48.63 600.34,98.33 684.62,80.94 687.65,28.41 "
     id="polygon28"
     transform="translate(-142.0206,-10.786375)"
     style="fill:#f32c39" />
  <polygon
     class="cls-3"
     points="684.62,80.94 805.95,98.33 709.95,125.54 600.34,98.33 "
     id="polygon30"
     transform="translate(-142.0206,-10.786375)"
     style="fill:#231025" />
  <polygon
     class="cls-4"
     points="600.34,48.63 496.4,24.63 505.1,122.9 600.29,149.6 600.72,234.77 698.61,264.25 709.95,125.54 600.34,98.33 "
     id="polygon32"
     transform="translate(-142.0206,-10.786375)"
     style="fill:#8b272e" />
  <polygon
     class="cls-3"
     points="505.1,122.9 600.34,149.73 500.94,179.59 409.85,149.73 "
     id="polygon34"
     transform="translate(-142.0206,-10.786375)"
     style="fill:#231025" />
  <polygon
     class="cls-5"
     points="500.94,178.08 505.85,265.39 600.72,234.77 600.34,149.73 "
     id="polygon36"
     transform="translate(-142.0206,-10.786375)"
     style="fill:#f32c39" />
  <polygon
     class="cls-3"
     points="600.72,234.77 698.61,264.25 600.34,300.01 505.85,265.39 "
     id="polygon38"
     transform="translate(-142.0206,-10.786375)"
     style="fill:#231025" />
  <polyline
     class="cls-5"
     points="600.34 299.16 698.61 264.25 709.95 125.54 805.95 98.33 775.33 299.02 600.34 378.39"
     id="polyline40"
     transform="translate(-142.0206,-10.786375)"
     style="fill:#f32c39" />
  <polyline
     class="cls-4"
     points="600.34 378.39 600.34 299.16 505.85 265.39 500.94 179.59 409.85 149.73 425.43 299.11"
     id="polyline42"
     transform="translate(-142.0206,-10.786375)"
     style="fill:#8b272e" />
  <g
     transform="matrix(2.1857423,0.32895254,-0.32895254,2.1857423,10.870953,-610.85166)"
     id="layer1"
     inkscape:label="Layer 1">
    <path
       id="path5957"
       d="m 458.58116,320.51613 2.04587,7.73186 2.51173,0.007 2.16568,-7.98255"
       style="color:#000000;display:inline;overflow:visible;visibility:visible;fill:#616161;fill-opacity:1;fill-rule:evenodd;stroke:#000000;stroke-width:2.13257074;stroke-linecap:butt;stroke-linejoin:miter;stroke-miterlimit:4;stroke-dasharray:none;stroke-dashoffset:0;stroke-opacity:1;marker:none;marker-start:none;marker-mid:none;marker-end:none;enable-background:accumulate"
       inkscape:connector-curvature="0" />
    <path
       id="path5955"
       d="m 443.89205,320.47022 2.04587,7.73185 2.51174,0.007 2.16568,-7.98255"
       style="color:#000000;display:inline;overflow:visible;visibility:visible;fill:#616161;fill-opacity:1;fill-rule:evenodd;stroke:#000000;stroke-width:2.13257074;stroke-linecap:butt;stroke-linejoin:miter;stroke-miterlimit:4;stroke-dasharray:none;stroke-dashoffset:0;stroke-opacity:1;marker:none;marker-start:none;marker-mid:none;marker-end:none;enable-background:accumulate"
       inkscape:connector-curvature="0" />
    <path
       id="path5953"
       d="m 429.20295,320.4243 2.04586,7.73186 2.51175,0.007 2.16567,-7.98255"
       style="color:#000000;display:inline;overflow:visible;visibility:visible;fill:#616161;fill-opacity:1;fill-rule:evenodd;stroke:#000000;stroke-width:2.13257074;stroke-linecap:butt;stroke-linejoin:miter;stroke-miterlimit:4;stroke-dasharray:none;stroke-dashoffset:0;stroke-opacity:1;marker:none;marker-start:none;marker-mid:none;marker-end:none;enable-background:accumulate"
       inkscape:connector-curvature="0" />
    <path
       sodipodi:nodetypes="cs"
       id="path7944"
       d="m 407.9598,359.80983 c -4.30302,-4.86817 -4.5967,-12.03828 -0.89444,-17.22023"
       style="color:#000000;display:inline;overflow:visible;visibility:visible;fill:#616161;fill-opacity:1;fill-rule:evenodd;stroke:#000000;stroke-width:2.13257074;stroke-linecap:butt;stroke-linejoin:miter;stroke-miterlimit:4;stroke-dasharray:none;stroke-dashoffset:0;stroke-opacity:1;marker:none;marker-start:none;marker-mid:none;marker-end:none;enable-background:accumulate"
       inkscape:connector-curvature="0" />
    <path
       sodipodi:nodetypes="cccccc"
       id="path9897"
       d="m 424.37939,320.41781 48.51574,0.15164 -0.0755,-0.1115 c 5.1604,-2.5418 -0.10001,-4.29368 -4.1277,-6.139 -13.72868,-0.0746 -27.3538,0.0246 -40.34174,1.19337 -3.39303,0.7653 -8.18232,2.72101 -3.97079,4.90549 z"
       style="color:#000000;display:inline;overflow:visible;visibility:visible;fill:#616161;fill-opacity:1;fill-rule:evenodd;stroke:#000000;stroke-width:2.13257074;stroke-linecap:butt;stroke-linejoin:miter;stroke-miterlimit:4;stroke-dasharray:none;stroke-dashoffset:0;stroke-opacity:1;marker:none;marker-start:none;marker-mid:none;marker-end:none;enable-background:accumulate"
       inkscape:connector-curvature="0" />
    <path
       sodipodi:nodetypes="ccccccccccccccccccccccccccccccccc"
       id="rect16740"
       d="m 421.96487,325.33071 1.07441,-2.59572 4.53351,-0.0371 2.77175,8.19042 5.33182,-0.11662 2.22398,-7.92359 4.75434,-0.0724 2.61779,8.15922 4.99818,0.0156 2.29084,-7.99001 4.6377,-0.0353 2.46919,7.91938 5.80034,-0.0564 2.22336,-7.89619 4.37975,-0.11963 2.72264,8.45474 -0.25556,39.11873 -2.63178,6.53634 -5.04936,0.17793 -1.66026,-6.34222 -5.75483,-0.11196 -2.37848,6.37081 -4.87304,0.0608 -1.912,-6.60327 -6.13327,0.10215 -1.86253,6.46408 -5.08445,0.0107 -1.71508,-6.56168 -6.11963,0.0918 -1.96341,6.38167 -4.4636,-0.20724 -1.31201,-6.66843 z"
       style="color:#000000;display:inline;overflow:visible;visibility:visible;fill:#616161;fill-opacity:1;fill-rule:evenodd;stroke:none;stroke-width:2.13257074;stroke-linecap:butt;stroke-linejoin:miter;stroke-miterlimit:4;stroke-dashoffset:0;stroke-opacity:1;marker:none;marker-start:none;marker-mid:none;marker-end:none;enable-background:accumulate"
       inkscape:connector-curvature="0" />
    <path
       style="color:#000000;display:inline;overflow:visible;visibility:visible;fill:url(#linearGradient23757);fill-opacity:1;fill-rule:evenodd;stroke:none;stroke-width:2.13257074;stroke-linecap:butt;stroke-linejoin:miter;stroke-miterlimit:4;stroke-dashoffset:0;stroke-opacity:1;marker:none;marker-start:none;marker-mid:none;marker-end:none;enable-background:accumulate"
       d="m 421.96487,325.33071 1.07441,-2.59572 4.53351,-0.0371 2.77175,8.19042 5.33182,-0.11662 2.22398,-7.92359 4.75434,-0.0724 2.61779,8.15922 4.99818,0.0156 2.29084,-7.99001 4.6377,-0.0353 2.46919,7.91938 5.80034,-0.0564 2.22336,-7.89619 4.37975,-0.11963 2.72264,8.45474 -0.25556,39.11873 -2.63178,6.53634 -5.04936,0.17793 -1.66026,-6.34222 -5.75483,-0.11196 -2.37848,6.37081 -4.87304,0.0608 -1.912,-6.60327 -6.13327,0.10215 -1.86253,6.46408 -5.08445,0.0107 -1.71508,-6.56168 -6.11963,0.0918 -1.96341,6.38167 -4.4636,-0.20724 -1.31201,-6.66843 z"
       id="path22613"
       sodipodi:nodetypes="ccccccccccccccccccccccccccccccccc"
       inkscape:connector-curvature="0" />
    <path
       sodipodi:nodetypes="cccc"
       id="path5949"
       d="m 399.82473,320.33247 2.04587,7.73186 2.51173,0.007 0.64728,-2.38579 1.48744,-5.48262 z"
       style="color:#000000;display:inline;overflow:visible;visibility:visible;fill:#616161;fill-opacity:1;fill-rule:evenodd;stroke:#000000;stroke-width:2.13257074;stroke-linecap:butt;stroke-linejoin:miter;stroke-miterlimit:4;stroke-dasharray:none;stroke-dashoffset:0;stroke-opacity:1;marker:none;marker-start:none;marker-mid:none;marker-end:none;enable-background:accumulate"
       inkscape:connector-curvature="0" />
    <path
       id="path5945"
       d="m 385.1354,320.3532 2.04587,7.73186 2.51174,0.007 2.16567,-7.98255"
       style="color:#000000;display:inline;overflow:visible;visibility:visible;fill:#616161;fill-opacity:1;fill-rule:evenodd;stroke:#000000;stroke-width:2.13257074;stroke-linecap:butt;stroke-linejoin:miter;stroke-miterlimit:4;stroke-dasharray:none;stroke-dashoffset:0;stroke-opacity:1;marker:none;marker-start:none;marker-mid:none;marker-end:none;enable-background:accumulate"
       inkscape:connector-curvature="0" />
    <path
       style="color:#000000;display:inline;overflow:visible;visibility:visible;fill:#616161;fill-opacity:1;fill-rule:evenodd;stroke:#000000;stroke-width:2.13257074;stroke-linecap:butt;stroke-linejoin:miter;stroke-miterlimit:4;stroke-dasharray:none;stroke-dashoffset:0;stroke-opacity:1;marker:none;marker-start:none;marker-mid:none;marker-end:none;enable-background:accumulate"
       d="m 370.44628,320.30727 2.04587,7.73187 2.51174,0.007 2.16568,-7.98256"
       id="path5131"
       inkscape:connector-curvature="0" />
    <path
       sodipodi:nodetypes="cccccccccc"
       d="m 455.44555,290.63699 -5.09533,-6.26752 0.0351,-6.39985 1.61503,-0.95405 0.20093,-64.28551 c -14.12677,1.86511 -24.93437,8.3192 -32.03286,20.26353 l -34.17379,57.38433 -15.62591,21.09023 -3.85186,8.7688 37.60324,0.11755"
       style="fill:#cbd1d3;fill-opacity:1;fill-rule:evenodd;stroke:#000000;stroke-width:2.13257074;stroke-linecap:butt;stroke-linejoin:miter;stroke-miterlimit:4;stroke-opacity:1"
       id="path4123"
       inkscape:connector-curvature="0" />
    <path
       id="path2176"
       d="m 530.81119,212.95769 -0.21258,68.0087 c -0.72166,6.99058 -10.72087,10.09234 -20.99,9.83088 l -110.22672,-0.34452 c 5.85498,39.62563 18.47328,85.47644 -5.21725,134.03642 l -143.67,294.4469 c -3.18344,6.52435 -5.57098,12.66717 -5.59382,19.97547 -0.0671,21.46203 17.26901,38.94026 38.73105,39.00735 15.76116,0.0493 29.75215,-9.14711 35.52535,-22.78089 L 455.88527,432.24607 c 21.21659,-50.10426 70.66394,-69.87461 107.65189,-103.36028 24.47429,-22.15688 3.60136,-104.91773 -32.72597,-115.9281 z m -63.5735,105.29742 c 4.14645,0.007 7.47852,3.37426 7.47386,7.52072 l -0.0574,50.34872 c -0.004,4.14645 -3.34096,7.48181 -7.4874,7.47396 l -37.75319,-0.0514 c -4.14643,-0.007 -7.4785,-3.37426 -7.47385,-7.52071 l 0.0574,-50.34873 c 0.004,-4.14645 3.34096,-7.4818 7.48741,-7.47394 z m -181.8509,388.59432 c 16.5289,0.0517 29.88064,13.48714 29.82895,30.01603 -0.0516,16.52889 -13.48722,29.91393 -30.0161,29.86227 -16.5289,-0.0516 -29.91385,-13.52054 -29.86219,-30.04944 0.0517,-16.52888 13.52046,-29.88051 30.04934,-29.82886 z"
       style="fill:#cbd1d3;fill-opacity:1;fill-rule:evenodd;stroke:#000000;stroke-width:2.13257074;stroke-linecap:butt;stroke-linejoin:miter;stroke-miterlimit:4;stroke-dasharray:none;stroke-opacity:1"
       inkscape:connector-curvature="0" />
    <path
       id="path5121"
       d="m 399.54147,290.49618 -13.38303,-0.0418"
       style="fill:none;fill-rule:evenodd;stroke:#000000;stroke-width:1.06628537px;stroke-linecap:butt;stroke-linejoin:miter;stroke-opacity:1"
       inkscape:connector-curvature="0" />
    <path
       id="path5123"
       d="m 370.68457,311.04621 31.66692,0.099"
       style="fill:none;fill-rule:evenodd;stroke:#000000;stroke-width:1.06628537px;stroke-linecap:butt;stroke-linejoin:miter;stroke-opacity:1"
       inkscape:connector-curvature="0" />
    <g
       id="g6967"
       transform="matrix(1.0662802,0.00333285,-0.00333285,1.0662802,8.5726079,201.89401)">
      <path
         style="fill:none;fill-rule:evenodd;stroke:#000000;stroke-width:1px;stroke-linecap:butt;stroke-linejoin:miter;stroke-opacity:1"
         d="m 434.91915,162.9146 -13.61923,-50.82766 h -4.71599 l -2.05863,7.6829"
         id="path6969"
         sodipodi:nodetypes="cccc"
         inkscape:connector-curvature="0" />
      <path
         sodipodi:nodetypes="cccc"
         id="path6971"
         d="m 416.58229,112.08694 13.61923,50.82766 h 5.02849 l 1.64086,-6.12376"
         style="fill:none;fill-rule:evenodd;stroke:#000000;stroke-width:1px;stroke-linecap:butt;stroke-linejoin:miter;stroke-opacity:1"
         inkscape:connector-curvature="0" />
    </g>
    <path
       id="path9893"
       d="m 450.43813,277.37 -21.85856,12.52912"
       style="fill:none;fill-rule:evenodd;stroke:#000000;stroke-width:1.06628537px;stroke-linecap:butt;stroke-linejoin:miter;stroke-opacity:1"
       inkscape:connector-curvature="0" />
    <path
       d="m 459.65522,331.02207 9.87501,0.0309 m -39.36616,-0.12304 9.80758,0.0306 m 5.25793,0.0164 9.24948,0.0289 m -31.9706,-0.0999 2.40761,0.007 m 45.17228,39.63097 4.10001,0.0128 m -33.6378,-0.10514 9.7439,0.0305 m -24.68883,-0.0772 9.86344,0.0308 m 20.12625,0.0629 c 0,0 3.78903,0.0118 9.35256,0.0292"
       style="color:#000000;display:inline;overflow:visible;visibility:visible;fill:#616161;fill-opacity:1;fill-rule:evenodd;stroke:#000000;stroke-width:2.13257074;stroke-linecap:butt;stroke-linejoin:miter;stroke-miterlimit:4;stroke-dasharray:none;stroke-dashoffset:0;stroke-opacity:1;marker:none;marker-start:none;marker-mid:none;marker-end:none;enable-background:accumulate"
       id="path6936"
       inkscape:connector-curvature="0" />
    <g
       transform="matrix(1.0662802,0.00333285,-0.00333285,1.0662802,-6.0887373,201.84873)"
       id="g13785">
      <path
         sodipodi:nodetypes="cccc"
         id="path13787"
         d="m 434.91915,162.9146 -13.61923,-50.82766 h -4.71599 l -2.05863,7.6829"
         style="fill:none;fill-rule:evenodd;stroke:#000000;stroke-width:1px;stroke-linecap:butt;stroke-linejoin:miter;stroke-opacity:1"
         inkscape:connector-curvature="0" />
      <path
         style="fill:none;fill-rule:evenodd;stroke:#000000;stroke-width:1px;stroke-linecap:butt;stroke-linejoin:miter;stroke-opacity:1"
         d="m 416.58229,112.08694 13.61923,50.82766 h 5.02849 l 1.64086,-6.12376"
         id="path13789"
         sodipodi:nodetypes="cccc"
         inkscape:connector-curvature="0" />
    </g>
    <g
       id="g13791"
       transform="matrix(1.0662802,0.00333285,-0.00333285,1.0662802,-21.01666,201.80262)">
      <path
         style="fill:none;fill-rule:evenodd;stroke:#000000;stroke-width:1px;stroke-linecap:butt;stroke-linejoin:miter;stroke-opacity:1"
         d="m 434.91915,162.9146 -13.61923,-50.82766 h -4.71599 l -0.64755,2.41668"
         id="path13793"
         sodipodi:nodetypes="cccc"
         inkscape:connector-curvature="0" />
      <path
         sodipodi:nodetypes="cccc"
         id="path13795"
         d="m 416.58229,112.08694 13.61923,50.82766 h 5.02849 l 1.64086,-6.12376"
         style="fill:none;fill-rule:evenodd;stroke:#000000;stroke-width:1px;stroke-linecap:butt;stroke-linejoin:miter;stroke-opacity:1"
         inkscape:connector-curvature="0" />
    </g>
    <g
       transform="matrix(1.0662802,0.00333285,-0.00333285,1.0662802,-35.811301,201.75691)"
       id="g13797">
      <path
         sodipodi:nodetypes="cc"
         id="path13799"
         d="m 434.91915,162.9146 -5.16043,-19.259"
         style="fill:none;fill-rule:evenodd;stroke:#000000;stroke-width:1px;stroke-linecap:butt;stroke-linejoin:miter;stroke-opacity:1"
         inkscape:connector-curvature="0" />
      <path
         style="fill:none;fill-rule:evenodd;stroke:#000000;stroke-width:1px;stroke-linecap:butt;stroke-linejoin:miter;stroke-opacity:1"
         d="m 429.78317,161.35329 0.41835,1.56131 h 5.02849 l 1.64086,-6.12376"
         id="path13801"
         sodipodi:nodetypes="cccc"
         inkscape:connector-curvature="0" />
    </g>
    <g
       transform="matrix(1.0662802,0.00333285,-0.00333285,1.0662802,23.500533,201.94012)"
       id="g13809">
      <path
         sodipodi:nodetypes="cccc"
         id="path13811"
         d="m 423.544,120.46197 -2.24408,-8.37503 h -4.71599 l -2.05863,7.6829"
         style="fill:none;fill-rule:evenodd;stroke:#000000;stroke-width:1px;stroke-linecap:butt;stroke-linejoin:miter;stroke-opacity:1"
         inkscape:connector-curvature="0" />
      <path
         style="fill:none;fill-rule:evenodd;stroke:#000000;stroke-width:1px;stroke-linecap:butt;stroke-linejoin:miter;stroke-opacity:1"
         d="m 416.58229,112.08694 7.00514,26.14356"
         id="path13813"
         sodipodi:nodetypes="cc"
         inkscape:connector-curvature="0" />
    </g>
    <path
       sodipodi:nodetypes="ccccccccsccccc"
       id="path17711"
       d="m 405.24319,323.49276 c 4.21306,18.67326 3.63,37.33151 2.22415,55.9872 l 14.39479,0.045 c 0.10269,-18.65975 -0.76409,-32.485 -0.19431,-53.3411 l -2.51326,-2.64761 z m 69.13324,56.19633 22.65845,0.0708 c 20.53701,-15.97954 50.87337,-36.77749 67.88673,-53.05656 4.5319,-4.3363 5.59196,-10.48867 7.22282,-14.28139 -3.30181,6.05628 -10.84165,11.34606 -17.62302,11.53737 l -76.98421,-0.24853 -2.75478,2.48511 z"
       style="fill:url(#linearGradient23727);fill-opacity:1;fill-rule:evenodd;stroke:none;stroke-width:1.06628537px;stroke-linecap:butt;stroke-linejoin:miter;stroke-opacity:1"
       inkscape:connector-curvature="0" />
    <path
       sodipodi:nodetypes="ccccc"
       id="path19687"
       d="m 385.95334,290.44293 13.43114,0.0549 3.33986,20.65274 -31.99972,-0.12382 z"
       style="fill:#000000;fill-opacity:0.27631579;fill-rule:evenodd;stroke:none;stroke-width:1.06628537px;stroke-linecap:butt;stroke-linejoin:miter;stroke-opacity:1"
       inkscape:connector-curvature="0" />
    <path
       sodipodi:nodetypes="ccccc"
       id="path20658"
       d="m 450.4373,277.63658 -22.59911,12.92476 27.55669,0.0862 -5.04547,-6.21359 z"
       style="color:#000000;display:inline;overflow:visible;visibility:visible;fill:#000000;fill-opacity:0.27631579;fill-rule:evenodd;stroke:none;stroke-width:1.06628537px;stroke-linecap:butt;stroke-linejoin:miter;stroke-miterlimit:4;stroke-dasharray:none;stroke-dashoffset:0;stroke-opacity:1;marker:none;marker-start:none;marker-mid:none;marker-end:none;enable-background:accumulate"
       inkscape:connector-curvature="0" />
    <path
       id="path20660"
       d="m 370.42108,313.17383 32.32161,0.10109"
       style="fill:none;fill-rule:evenodd;stroke:#000000;stroke-width:1.06628537px;stroke-linecap:butt;stroke-linejoin:miter;stroke-opacity:1"
       inkscape:connector-curvature="0" />
    <rect
       rx="14.231421"
       transform="rotate(0.10428763)"
       ry="12.102313"
       y="308.34598"
       x="419.76547"
       height="80.836327"
       width="58.366756"
       id="rect23799"
       style="color:#000000;display:inline;overflow:visible;visibility:visible;opacity:1;fill:none;fill-opacity:1;fill-rule:evenodd;stroke:#000000;stroke-width:1.06628537;stroke-linecap:butt;stroke-linejoin:miter;stroke-miterlimit:4;stroke-dasharray:none;stroke-dashoffset:0;stroke-opacity:1;marker:none;marker-start:none;marker-mid:none;marker-end:none;enable-background:accumulate" />
    <g
       style="stroke:#000000;stroke-width:1.41243458;stroke-miterlimit:4;stroke-dasharray:none;stroke-opacity:1"
       transform="matrix(-1.0662854,0,0,0.53448654,573.38648,155.41187)"
       id="g26061">
      <path
         style="fill:none;fill-rule:evenodd;stroke:#000000;stroke-width:1.41243458;stroke-linecap:butt;stroke-linejoin:miter;stroke-miterlimit:4;stroke-dasharray:none;stroke-opacity:1"
         d="m 155.03237,254.8861 v 24.47643"
         id="path26007"
         inkscape:connector-curvature="0" />
      <path
         id="path26009"
         d="m 151.38242,254.84841 v 20.78171"
         style="fill:none;fill-rule:evenodd;stroke:#000000;stroke-width:1.41243458;stroke-linecap:butt;stroke-linejoin:miter;stroke-miterlimit:4;stroke-dasharray:none;stroke-opacity:1"
         inkscape:connector-curvature="0" />
      <path
         style="fill:none;fill-rule:evenodd;stroke:#000000;stroke-width:1.41243458;stroke-linecap:butt;stroke-linejoin:miter;stroke-miterlimit:4;stroke-dasharray:none;stroke-opacity:1"
         d="m 147.73246,254.84841 v 20.78171"
         id="path26011"
         inkscape:connector-curvature="0" />
      <path
         id="path26013"
         d="m 144.08249,254.84841 v 20.78171"
         style="fill:none;fill-rule:evenodd;stroke:#000000;stroke-width:1.41243458;stroke-linecap:butt;stroke-linejoin:miter;stroke-miterlimit:4;stroke-dasharray:none;stroke-opacity:1"
         inkscape:connector-curvature="0" />
      <path
         id="path26015"
         d="m 140.43253,254.84841 v 20.78171"
         style="fill:none;fill-rule:evenodd;stroke:#000000;stroke-width:1.41243458;stroke-linecap:butt;stroke-linejoin:miter;stroke-miterlimit:4;stroke-dasharray:none;stroke-opacity:1"
         inkscape:connector-curvature="0" />
      <path
         style="fill:none;fill-rule:evenodd;stroke:#000000;stroke-width:1.41243458;stroke-linecap:butt;stroke-linejoin:miter;stroke-miterlimit:4;stroke-dasharray:none;stroke-opacity:1"
         d="m 136.78257,254.93334 v 27.89877"
         id="path26017"
         inkscape:connector-curvature="0" />
      <path
         id="path26019"
         d="m 133.1326,254.84841 v 20.78171"
         style="fill:none;fill-rule:evenodd;stroke:#000000;stroke-width:1.41243458;stroke-linecap:butt;stroke-linejoin:miter;stroke-miterlimit:4;stroke-dasharray:none;stroke-opacity:1"
         inkscape:connector-curvature="0" />
      <path
         style="fill:none;fill-rule:evenodd;stroke:#000000;stroke-width:1.41243458;stroke-linecap:butt;stroke-linejoin:miter;stroke-miterlimit:4;stroke-dasharray:none;stroke-opacity:1"
         d="m 129.48264,254.84841 v 20.78171"
         id="path26021"
         inkscape:connector-curvature="0" />
      <path
         id="path26023"
         d="m 125.83268,254.84841 v 20.78171"
         style="fill:none;fill-rule:evenodd;stroke:#000000;stroke-width:1.41243458;stroke-linecap:butt;stroke-linejoin:miter;stroke-miterlimit:4;stroke-dasharray:none;stroke-opacity:1"
         inkscape:connector-curvature="0" />
      <path
         style="fill:none;fill-rule:evenodd;stroke:#000000;stroke-width:1.41243458;stroke-linecap:butt;stroke-linejoin:miter;stroke-miterlimit:4;stroke-dasharray:none;stroke-opacity:1"
         d="m 122.18272,254.84841 v 20.78171"
         id="path26025"
         inkscape:connector-curvature="0" />
      <path
         id="path26027"
         d="m 118.53276,254.8861 v 24.47643"
         style="fill:none;fill-rule:evenodd;stroke:#000000;stroke-width:1.41243458;stroke-linecap:butt;stroke-linejoin:miter;stroke-miterlimit:4;stroke-dasharray:none;stroke-opacity:1"
         inkscape:connector-curvature="0" />
      <path
         style="fill:none;fill-rule:evenodd;stroke:#000000;stroke-width:1.41243458;stroke-linecap:butt;stroke-linejoin:miter;stroke-miterlimit:4;stroke-dasharray:none;stroke-opacity:1"
         d="m 114.8828,254.84841 v 20.78171"
         id="path26029"
         inkscape:connector-curvature="0" />
      <path
         id="path26031"
         d="m 111.23283,254.84841 v 20.78171"
         style="fill:none;fill-rule:evenodd;stroke:#000000;stroke-width:1.41243458;stroke-linecap:butt;stroke-linejoin:miter;stroke-miterlimit:4;stroke-dasharray:none;stroke-opacity:1"
         inkscape:connector-curvature="0" />
      <path
         style="fill:none;fill-rule:evenodd;stroke:#000000;stroke-width:1.41243458;stroke-linecap:butt;stroke-linejoin:miter;stroke-miterlimit:4;stroke-dasharray:none;stroke-opacity:1"
         d="m 107.58287,254.84841 v 20.78171"
         id="path26033"
         inkscape:connector-curvature="0" />
      <path
         id="path26035"
         d="m 103.93291,254.84841 v 20.78171"
         style="fill:none;fill-rule:evenodd;stroke:#000000;stroke-width:1.41243458;stroke-linecap:butt;stroke-linejoin:miter;stroke-miterlimit:4;stroke-dasharray:none;stroke-opacity:1"
         inkscape:connector-curvature="0" />
      <path
         style="fill:none;fill-rule:evenodd;stroke:#000000;stroke-width:1.41243458;stroke-linecap:butt;stroke-linejoin:miter;stroke-miterlimit:4;stroke-dasharray:none;stroke-opacity:1"
         d="m 100.28295,254.92661 v 28.44827"
         id="path26037"
         inkscape:connector-curvature="0" />
      <path
         id="path26039"
         d="m 96.632986,254.84841 v 20.78171"
         style="fill:none;fill-rule:evenodd;stroke:#000000;stroke-width:1.41243458;stroke-linecap:butt;stroke-linejoin:miter;stroke-miterlimit:4;stroke-dasharray:none;stroke-opacity:1"
         inkscape:connector-curvature="0" />
      <path
         style="fill:none;fill-rule:evenodd;stroke:#000000;stroke-width:1.41243458;stroke-linecap:butt;stroke-linejoin:miter;stroke-miterlimit:4;stroke-dasharray:none;stroke-opacity:1"
         d="m 92.983024,254.84841 v 20.78171"
         id="path26041"
         inkscape:connector-curvature="0" />
      <path
         id="path26043"
         d="m 89.333062,254.84841 v 20.78171"
         style="fill:none;fill-rule:evenodd;stroke:#000000;stroke-width:1.41243458;stroke-linecap:butt;stroke-linejoin:miter;stroke-miterlimit:4;stroke-dasharray:none;stroke-opacity:1"
         inkscape:connector-curvature="0" />
      <path
         style="fill:none;fill-rule:evenodd;stroke:#000000;stroke-width:1.41243458;stroke-linecap:butt;stroke-linejoin:miter;stroke-miterlimit:4;stroke-dasharray:none;stroke-opacity:1"
         d="m 85.6831,254.84841 v 20.78171"
         id="path26045"
         inkscape:connector-curvature="0" />
      <path
         id="path26047"
         d="m 82.033137,254.8861 v 24.47643"
         style="fill:none;fill-rule:evenodd;stroke:#000000;stroke-width:1.41243458;stroke-linecap:butt;stroke-linejoin:miter;stroke-miterlimit:4;stroke-dasharray:none;stroke-opacity:1"
         inkscape:connector-curvature="0" />
      <path
         style="fill:none;fill-rule:evenodd;stroke:#000000;stroke-width:1.41243458;stroke-linecap:butt;stroke-linejoin:miter;stroke-miterlimit:4;stroke-dasharray:none;stroke-opacity:1"
         d="m 78.383175,254.84841 v 20.78171"
         id="path26049"
         inkscape:connector-curvature="0" />
      <path
         sodipodi:nodetypes="cc"
         id="path26051"
         d="m 74.733214,254.59124 v 21.03888"
         style="fill:none;fill-rule:evenodd;stroke:#000000;stroke-width:1.41243458;stroke-linecap:butt;stroke-linejoin:miter;stroke-miterlimit:4;stroke-dasharray:none;stroke-opacity:1"
         inkscape:connector-curvature="0" />
      <path
         sodipodi:nodetypes="cc"
         style="fill:none;fill-rule:evenodd;stroke:#000000;stroke-width:1.41243458;stroke-linecap:butt;stroke-linejoin:miter;stroke-miterlimit:4;stroke-dasharray:none;stroke-opacity:1"
         d="m 71.083252,254.43521 v 21.19491"
         id="path26053"
         inkscape:connector-curvature="0" />
      <path
         sodipodi:nodetypes="cc"
         id="path26055"
         d="m 67.43329,254.7994 v 20.83072"
         style="fill:none;fill-rule:evenodd;stroke:#000000;stroke-width:1.41243458;stroke-linecap:butt;stroke-linejoin:miter;stroke-miterlimit:4;stroke-dasharray:none;stroke-opacity:1"
         inkscape:connector-curvature="0" />
      <path
         sodipodi:nodetypes="cc"
         style="fill:none;fill-rule:evenodd;stroke:#000000;stroke-width:1.41243458;stroke-linecap:butt;stroke-linejoin:miter;stroke-miterlimit:4;stroke-dasharray:none;stroke-opacity:1"
         d="m 63.783328,254.37623 v 28.99865"
         id="path26057"
         inkscape:connector-curvature="0" />
    </g>
    <path
       transform="matrix(0.22263293,0.13359575,-0.13359575,0.22263293,383.30826,186.19561)"
       d="m 346.48231,252.97796 -29.65825,-16.46437 29.08769,-17.45262 z"
       inkscape:randomized="0"
       inkscape:rounded="0"
       inkscape:flatsided="true"
       sodipodi:arg2="2.0775744"
       sodipodi:arg1="1.0303768"
       sodipodi:r2="15.844397"
       sodipodi:r1="19.584751"
       sodipodi:cy="236.18417"
       sodipodi:cx="336.40604"
       sodipodi:sides="3"
       id="path27067"
       style="color:#000000;display:inline;overflow:visible;visibility:visible;opacity:1;fill:none;fill-opacity:1;fill-rule:evenodd;stroke:#000000;stroke-width:2.05338717;stroke-linecap:square;stroke-linejoin:miter;stroke-miterlimit:4;stroke-dasharray:none;stroke-dashoffset:0;stroke-opacity:1;marker:none;marker-start:none;marker-mid:none;marker-end:none;enable-background:accumulate"
       sodipodi:type="star" />
    <path
       sodipodi:type="star"
       style="color:#000000;display:inline;overflow:visible;visibility:visible;opacity:1;fill:none;fill-opacity:1;fill-rule:evenodd;stroke:#000000;stroke-width:2.05338717;stroke-linecap:square;stroke-linejoin:miter;stroke-miterlimit:4;stroke-dasharray:none;stroke-dashoffset:0;stroke-opacity:1;marker:none;marker-start:none;marker-mid:none;marker-end:none;enable-background:accumulate"
       id="path27069"
       sodipodi:sides="3"
       sodipodi:cx="336.40604"
       sodipodi:cy="236.18417"
       sodipodi:r1="19.584751"
       sodipodi:r2="15.844397"
       sodipodi:arg1="1.0303768"
       sodipodi:arg2="2.0775744"
       inkscape:flatsided="true"
       inkscape:rounded="0"
       inkscape:randomized="0"
       d="m 346.48231,252.97796 -29.65825,-16.46437 29.08769,-17.45262 z"
       transform="matrix(0.22263293,-0.13359575,-0.13359575,-0.22263293,462.10469,411.11914)" />
  </g>
</svg>
